<?xml version="1.0" encoding="utf-8"?>
<svg version="1.1" xmlns:xlink="http://www.w3.org/1999/xlink" width="14px" height="14px" viewBox="36 2948  14 14" xmlns="http://www.w3.org/2000/svg">
  <path d="M 36.5 2950  A 1.5 1.5 0 0 1 38 2948.5 L 48 2948.5  A 1.5 1.5 0 0 1 49.5 2950 L 49.5 2960  A 1.5 1.5 0 0 1 48 2961.5 L 38 2961.5  A 1.5 1.5 0 0 1 36.5 2960 L 36.5 2950  Z " fill-rule="nonzero" fill="#f0f0f0" stroke="none" />
  <path d="M 36.5 2950  A 1.5 1.5 0 0 1 38 2948.5 L 48 2948.5  A 1.5 1.5 0 0 1 49.5 2950 L 49.5 2960  A 1.5 1.5 0 0 1 48 2961.5 L 38 2961.5  A 1.5 1.5 0 0 1 36.5 2960 L 36.5 2950  Z " stroke-width="1" stroke="#2699fb" fill="none" />
</svg>