<?xml version="1.0" encoding="utf-8"?>
<svg version="1.1" xmlns:xlink="http://www.w3.org/1999/xlink" width="14px" height="14px" viewBox="57 653  14 14" xmlns="http://www.w3.org/2000/svg">
  <path d="M 57.5 655  A 1.5 1.5 0 0 1 59 653.5 L 69 653.5  A 1.5 1.5 0 0 1 70.5 655 L 70.5 665  A 1.5 1.5 0 0 1 69 666.5 L 59 666.5  A 1.5 1.5 0 0 1 57.5 665 L 57.5 655  Z " fill-rule="nonzero" fill="#ffffff" stroke="none" />
  <path d="M 57.5 655  A 1.5 1.5 0 0 1 59 653.5 L 69 653.5  A 1.5 1.5 0 0 1 70.5 655 L 70.5 665  A 1.5 1.5 0 0 1 69 666.5 L 59 666.5  A 1.5 1.5 0 0 1 57.5 665 L 57.5 655  Z " stroke-width="1" stroke="#2699fb" fill="none" />
</svg>