<?xml version="1.0" encoding="utf-8"?>
<svg version="1.1" xmlns:xlink="http://www.w3.org/1999/xlink" width="14px" height="14px" viewBox="196 528  14 14" xmlns="http://www.w3.org/2000/svg">
  <path d="M 196.5 530  A 1.5 1.5 0 0 1 198 528.5 L 208 528.5  A 1.5 1.5 0 0 1 209.5 530 L 209.5 540  A 1.5 1.5 0 0 1 208 541.5 L 198 541.5  A 1.5 1.5 0 0 1 196.5 540 L 196.5 530  Z " fill-rule="nonzero" fill="#ffffff" stroke="none" />
  <path d="M 196.5 530  A 1.5 1.5 0 0 1 198 528.5 L 208 528.5  A 1.5 1.5 0 0 1 209.5 530 L 209.5 540  A 1.5 1.5 0 0 1 208 541.5 L 198 541.5  A 1.5 1.5 0 0 1 196.5 540 L 196.5 530  Z " stroke-width="1" stroke="#2699fb" fill="none" />
  <path d="M 199.5 535.5  L 202.5 538.5  " stroke-width="3" stroke="#2699fb" fill="none" />
  <path d="M 202.5 538.5  L 207.5 531.5  " stroke-width="3" stroke="#2699fb" fill="none" />
</svg>