<?xml version="1.0" encoding="utf-8"?>
<svg version="1.1" xmlns:xlink="http://www.w3.org/1999/xlink" width="14px" height="14px" viewBox="196 830.5  14 14" xmlns="http://www.w3.org/2000/svg">
  <path d="M 196.5 832.5  A 1.5 1.5 0 0 1 198 831 L 208 831  A 1.5 1.5 0 0 1 209.5 832.5 L 209.5 842.5  A 1.5 1.5 0 0 1 208 844 L 198 844  A 1.5 1.5 0 0 1 196.5 842.5 L 196.5 832.5  Z " fill-rule="nonzero" fill="#f0f0f0" stroke="none" />
  <path d="M 196.5 832.5  A 1.5 1.5 0 0 1 198 831 L 208 831  A 1.5 1.5 0 0 1 209.5 832.5 L 209.5 842.5  A 1.5 1.5 0 0 1 208 844 L 198 844  A 1.5 1.5 0 0 1 196.5 842.5 L 196.5 832.5  Z " stroke-width="1" stroke="#2699fb" fill="none" />
</svg>