<?xml version="1.0" encoding="utf-8"?>
<svg version="1.1" xmlns:xlink="http://www.w3.org/1999/xlink" width="17px" height="18px" xmlns="http://www.w3.org/2000/svg">
  <g transform="matrix(1 0 0 1 -173 -120 )">
    <path d="M 7.6138916015625 16.07009765625  C 7.47139485677083 16.7461171875  7.12137858072917 17.24628515625  6.55000813802084 17.5561875  C 5.82368977864584 17.94825  5.08353678385417 17.93527734375  4.39595540364583 17.47546875  C 3.68208821614583 17.0026875  3.37080891927083 16.28630859375  3.42338053385417 15.40705078125  C 3.43583170572917 15.2585859375  3.3970947265625 15.2038125  3.2808837890625 15.13606640625  C 2.02193196614583 14.44707421875  1.02445475260417 13.48709765625  0.336873372395834 12.18983203125  C 0.206827799479168 11.93326171875  0.103068033854168 11.66227734375  0.0380452473958343 11.3783203125  C -0.0532633463541657 10.9862578125  0.0906168619791677 10.79743359375  0.479370117187501 10.75707421875  C 0.946980794270834 10.70230078125  1.36201985677083 10.5134765625  1.56953938802083 10.05366796875  C 1.66084798177083 9.8504296875  1.7120361328125 9.6082734375  1.7120361328125 9.3776484375  C 1.73832194010417 8.79676171875  1.7120361328125 8.215875  1.73832194010417 7.633546875  C 1.88081868489583 5.38927734375  2.77591959635417 3.5255390625  4.41117350260417 2.06539453125  C 5.91499837239583 0.71623828125  7.67891438802083 0.08201953125  9.66280110677083 0.14832421875  C 13.1269938151042 0.28381640625  16.0972900390625 2.825015625  16.7973225911458 6.3795234375  C 17.4323323567708 9.5967421875  16.4735921223958 12.28640625  14.0207112630208 14.38076953125  C 13.8782145182292 14.50184765625  13.7218831380208 14.6243671875  13.5531005859375 14.73247265625  C 13.4617919921875 14.80021875  13.4368896484375 14.85355078125  13.4756266276042 14.96165625  C 13.7993570963542 15.98937890625  13.3455810546875 17.123765625  12.4380289713542 17.6109609375  C 11.2053629557292 18.24662109375  9.77901204427084 17.59798828125  9.4027099609375 16.2185625  C 9.3902587890625 16.1637890625  9.32523600260417 16.097484375  9.2864990234375 16.097484375  C 8.7427978515625 16.057125  8.18387858072917 16.07009765625  7.6138916015625 16.07009765625  Z M 7.64017740885417 15.16489453125  C 8.2239990234375 15.16489453125  8.80782063802083 15.19228125  9.39164225260417 15.151921875  C 9.92289225260417 15.12453515625  10.4818115234375 15.071203125  11.0006103515625 14.9357109375  C 15.1260986328125 13.88204296875  17.3313395182292 9.13693359375  15.5273030598958 5.12405859375  C 14.4371337890625 2.7039375  12.5694580078125 1.32451171875  10.0142008463542 1.0405546875  C 8.05521647135417 0.82434375  6.30375162760417 1.4326171875  4.8248291015625 2.8106015625  C 3.3721923828125 4.17561328125  2.61958821614583 5.8779140625  2.56840006510417 7.9189453125  C 2.55594889322917 8.3917265625  2.56840006510417 8.878921875  2.56840006510417 9.351703125  C 2.5545654296875 10.3808671875  1.99702962239583 11.17796484375  1.04935709635417 11.4878671875  C 1.03690592447917 11.4878671875  1.0106201171875 11.51525390625  0.996785481770834 11.51525390625  C 1.36063639322917 12.51558984375  2.83817545572917 13.98870703125  3.75956217447917 14.3533828125  C 4.9161376953125 12.7044140625  7.25004069010417 13.2867421875  7.64017740885417 15.16489453125  Z " fill-rule="nonzero" fill="#ffffff" stroke="none" transform="matrix(1 0 0 1 173 120 )" />
  </g>
</svg>