<?xml version="1.0" encoding="utf-8"?>
<svg version="1.1" xmlns:xlink="http://www.w3.org/1999/xlink" width="6px" height="3px" xmlns="http://www.w3.org/2000/svg">
  <g transform="matrix(1 0 0 1 -180 -129 )">
    <path d="M 3.14064092221467 2.97124280427632  C 1.69531780740489 2.88273540296052  0.740908415421197 2.18573961759868  0.128571883491849 0.793328536184211  C -0.0189633576766295 0.451942845394737  0.116821289062501 0.112137643914473  0.397529933763589 0.0378546463815778  C 0.568566363790763 -0.00639905427631691  0.727852199388589 0.142166940789471  0.85058063009511 0.37924033717105  C 1.00986646569294 0.676372327302629  1.16915230129076 0.971923828124998  1.37674613620924 1.20899722450658  C 2.52699876868207 2.52712530838816  4.41231636379076 2.113037109375  5.13563073199728 0.40926963404605  C 5.2218017578125 0.202225534539471  5.33147397248641 0.0394351356907872  5.53906780740489 0.0394351356907872  C 5.84458326256794 0.053659539473682  6.01692531419837 0.425074527138155  5.8824462890625 0.764879728618419  C 5.50251040251359 1.69894891036184  4.90323008661685 2.38013980263158  4.09505031419837 2.70572060032895  C 3.73992123811141 2.85270610608553  3.37304156759511 2.91118421052632  3.14064092221467 2.97124280427632  Z " fill-rule="nonzero" fill="#ffffff" stroke="none" transform="matrix(1 0 0 1 180 129 )" />
  </g>
</svg>