<?xml version="1.0" encoding="utf-8"?>
<svg version="1.1" xmlns:xlink="http://www.w3.org/1999/xlink" width="14px" height="14px" viewBox="439 1548  14 14" xmlns="http://www.w3.org/2000/svg">
  <path d="M 439.5 1550  A 1.5 1.5 0 0 1 441 1548.5 L 451 1548.5  A 1.5 1.5 0 0 1 452.5 1550 L 452.5 1560  A 1.5 1.5 0 0 1 451 1561.5 L 441 1561.5  A 1.5 1.5 0 0 1 439.5 1560 L 439.5 1550  Z " fill-rule="nonzero" fill="#ffffff" stroke="none" />
  <path d="M 439.5 1550  A 1.5 1.5 0 0 1 441 1548.5 L 451 1548.5  A 1.5 1.5 0 0 1 452.5 1550 L 452.5 1560  A 1.5 1.5 0 0 1 451 1561.5 L 441 1561.5  A 1.5 1.5 0 0 1 439.5 1560 L 439.5 1550  Z " stroke-width="1" stroke="#2699fb" fill="none" />
</svg>