<?xml version="1.0" encoding="utf-8"?>
<svg version="1.1" xmlns:xlink="http://www.w3.org/1999/xlink" width="50px" height="50px" xmlns="http://www.w3.org/2000/svg">
  <g transform="matrix(1 0 0 1 -469 -338 )">
    <path d="M 44.4545454545455 31.3181818181818  L 50 25  L 44.4545454545455 18.6818181818182  L 45.2272727272727 10.3181818181818  L 37.0227272727273 8.45454545454546  L 32.7272727272727 1.22727272727273  L 25 4.54545454545455  L 17.2727272727273 1.22727272727273  L 12.9772727272727 8.45454545454545  L 4.77272727272727 10.2954545454545  L 5.54545454545455 18.6590909090909  L 0 25  L 5.54545454545455 31.3181818181818  L 4.77272727272727 39.7045454545455  L 12.9772727272727 41.5681818181818  L 17.2727272727273 48.7954545454545  L 25 45.4545454545455  L 32.7272727272727 48.7727272727273  L 37.0227272727273 41.5454545454545  L 45.2272727272727 39.6818181818182  L 44.4545454545455 31.3181818181818  Z M 43.9545454545455 25  L 39.75 29.7954545454545  L 40.3409090909091 36.1363636363636  L 34.1136363636364 37.5454545454545  L 30.8636363636364 43.0227272727273  L 25 40.5  L 19.1363636363636 43.0227272727273  L 15.8863636363636 37.5454545454545  L 9.65909090909091 36.1363636363636  L 10.25 29.7727272727273  L 6.04545454545455 25  L 10.25 20.1818181818182  L 9.65909090909091 13.8636363636364  L 15.8863636363636 12.4772727272727  L 19.1363636363636 7  L 25 9.5  L 30.8636363636364 6.97727272727273  L 34.1136363636364 12.4545454545455  L 40.3409090909091 13.8636363636364  L 39.75 20.2045454545455  L 43.9545454545455 25  Z M 22.7272727272727 36.3636363636364  L 22.7272727272727 31.8181818181818  L 27.2727272727273 31.8181818181818  L 27.2727272727273 36.3636363636364  L 22.7272727272727 36.3636363636364  Z M 23 27.2727272727273  L 23 13.6363636363636  L 27 13.6363636363636  L 27 27.2727272727273  L 23 27.2727272727273  Z " fill-rule="nonzero" fill="#2699fb" stroke="none" transform="matrix(1 0 0 1 469 338 )" />
  </g>
</svg>