<?xml version="1.0" encoding="utf-8"?>
<svg version="1.1" xmlns:xlink="http://www.w3.org/1999/xlink" width="14px" height="14px" viewBox="36 3795  14 14" xmlns="http://www.w3.org/2000/svg">
  <path d="M 36.5 3797  A 1.5 1.5 0 0 1 38 3795.5 L 48 3795.5  A 1.5 1.5 0 0 1 49.5 3797 L 49.5 3807  A 1.5 1.5 0 0 1 48 3808.5 L 38 3808.5  A 1.5 1.5 0 0 1 36.5 3807 L 36.5 3797  Z " fill-rule="nonzero" fill="#f0f0f0" stroke="none" />
  <path d="M 36.5 3797  A 1.5 1.5 0 0 1 38 3795.5 L 48 3795.5  A 1.5 1.5 0 0 1 49.5 3797 L 49.5 3807  A 1.5 1.5 0 0 1 48 3808.5 L 38 3808.5  A 1.5 1.5 0 0 1 36.5 3807 L 36.5 3797  Z " stroke-width="1" stroke="#2699fb" fill="none" />
  <path d="M 39.5 3802.5  L 42.5 3805.5  " stroke-width="3" stroke="#2699fb" fill="none" />
  <path d="M 42.5 3805.5  L 47.5 3798.5  " stroke-width="3" stroke="#2699fb" fill="none" />
</svg>