<?xml version="1.0" encoding="utf-8"?>
<svg version="1.1" xmlns:xlink="http://www.w3.org/1999/xlink" width="14px" height="14px" viewBox="439 2105  14 14" xmlns="http://www.w3.org/2000/svg">
  <path d="M 439.5 2107  A 1.5 1.5 0 0 1 441 2105.5 L 451 2105.5  A 1.5 1.5 0 0 1 452.5 2107 L 452.5 2117  A 1.5 1.5 0 0 1 451 2118.5 L 441 2118.5  A 1.5 1.5 0 0 1 439.5 2117 L 439.5 2107  Z " fill-rule="nonzero" fill="#f0f0f0" stroke="none" />
  <path d="M 439.5 2107  A 1.5 1.5 0 0 1 441 2105.5 L 451 2105.5  A 1.5 1.5 0 0 1 452.5 2107 L 452.5 2117  A 1.5 1.5 0 0 1 451 2118.5 L 441 2118.5  A 1.5 1.5 0 0 1 439.5 2117 L 439.5 2107  Z " stroke-width="1" stroke="#2699fb" fill="none" />
</svg>