<?xml version="1.0" encoding="utf-8"?>
<svg version="1.1" xmlns:xlink="http://www.w3.org/1999/xlink" width="14px" height="14px" viewBox="57 2486.5  14 14" xmlns="http://www.w3.org/2000/svg">
  <path d="M 57.5 2488.5  A 1.5 1.5 0 0 1 59 2487 L 69 2487  A 1.5 1.5 0 0 1 70.5 2488.5 L 70.5 2498.5  A 1.5 1.5 0 0 1 69 2500 L 59 2500  A 1.5 1.5 0 0 1 57.5 2498.5 L 57.5 2488.5  Z " fill-rule="nonzero" fill="#f0f0f0" stroke="none" />
  <path d="M 57.5 2488.5  A 1.5 1.5 0 0 1 59 2487 L 69 2487  A 1.5 1.5 0 0 1 70.5 2488.5 L 70.5 2498.5  A 1.5 1.5 0 0 1 69 2500 L 59 2500  A 1.5 1.5 0 0 1 57.5 2498.5 L 57.5 2488.5  Z " stroke-width="1" stroke="#2699fb" fill="none" />
</svg>