<?xml version="1.0" encoding="utf-8"?>
<svg version="1.1" xmlns:xlink="http://www.w3.org/1999/xlink" width="14px" height="14px" viewBox="73 1662  14 14" xmlns="http://www.w3.org/2000/svg">
  <path d="M 73.5 1664  A 1.5 1.5 0 0 1 75 1662.5 L 85 1662.5  A 1.5 1.5 0 0 1 86.5 1664 L 86.5 1674  A 1.5 1.5 0 0 1 85 1675.5 L 75 1675.5  A 1.5 1.5 0 0 1 73.5 1674 L 73.5 1664  Z " fill-rule="nonzero" fill="#ffffff" stroke="none" />
  <path d="M 73.5 1664  A 1.5 1.5 0 0 1 75 1662.5 L 85 1662.5  A 1.5 1.5 0 0 1 86.5 1664 L 86.5 1674  A 1.5 1.5 0 0 1 85 1675.5 L 75 1675.5  A 1.5 1.5 0 0 1 73.5 1674 L 73.5 1664  Z " stroke-width="1" stroke="#2699fb" fill="none" />
</svg>