<?xml version="1.0" encoding="utf-8"?>
<svg version="1.1" xmlns:xlink="http://www.w3.org/1999/xlink" width="14px" height="14px" viewBox="57 3020.5  14 14" xmlns="http://www.w3.org/2000/svg">
  <path d="M 57.5 3022.5  A 1.5 1.5 0 0 1 59 3021 L 69 3021  A 1.5 1.5 0 0 1 70.5 3022.5 L 70.5 3032.5  A 1.5 1.5 0 0 1 69 3034 L 59 3034  A 1.5 1.5 0 0 1 57.5 3032.5 L 57.5 3022.5  Z " fill-rule="nonzero" fill="#ffffff" stroke="none" />
  <path d="M 57.5 3022.5  A 1.5 1.5 0 0 1 59 3021 L 69 3021  A 1.5 1.5 0 0 1 70.5 3022.5 L 70.5 3032.5  A 1.5 1.5 0 0 1 69 3034 L 59 3034  A 1.5 1.5 0 0 1 57.5 3032.5 L 57.5 3022.5  Z " stroke-width="1" stroke="#2699fb" fill="none" />
  <path d="M 60.5 3028  L 63.5 3031  " stroke-width="3" stroke="#2699fb" fill="none" />
  <path d="M 63.5 3031  L 68.5 3024  " stroke-width="3" stroke="#2699fb" fill="none" />
</svg>