<?xml version="1.0" encoding="utf-8"?>
<svg version="1.1" xmlns:xlink="http://www.w3.org/1999/xlink" width="53px" height="50px" xmlns="http://www.w3.org/2000/svg">
  <g transform="matrix(1 0 0 1 -44 0 )">
    <path d="M 0 10.7142857142857  L 26.5 0  L 53 10.7142857142857  L 53 14.2857142857143  L 49.4666666666667 14.2857142857143  C 49.4666666666667 14.7693452380952  49.2780381944444 15.1878720238095  48.90078125 15.5412946428571  C 48.5235243055556 15.8947172619048  48.0772569444444 16.0714285714286  47.5619791666667 16  L 5.43802083333333 16  C 4.92274305555556 16.0714285714286  4.47647569444444 15.8947172619048  4.09921875 15.5412946428571  C 3.72196180555556 15.1878720238095  3.53333333333333 14.7693452380952  3.53333333333333 14.2857142857143  L 0 14.2857142857143  L 0 10.7142857142857  Z M 7 39.2857142857143  L 7 17.8571428571429  L 15 17.8571428571429  L 15 39.2857142857143  L 18 39.2857142857143  L 18 17.8571428571429  L 25 17.8571428571429  L 25 39.2857142857143  L 28 39.2857142857143  L 28 17.8571428571429  L 35 17.8571428571429  L 35 39.2857142857143  L 38 39.2857142857143  L 38 17.8571428571429  L 46 17.8571428571429  L 46 39.2857142857143  L 47.5619791666667 39.2857142857143  C 48.0772569444444 39.2857142857143  48.5235243055556 39.4624255952381  48.90078125 39.8158482142857  C 49.2780381944444 40.1692708333333  49.4666666666667 40.5877976190476  49.4666666666667 41.0714285714286  L 49.4666666666667 42  L 3.53333333333333 42  L 3.53333333333333 41.0714285714286  C 3.53333333333333 40.5877976190476  3.72196180555556 40.1692708333333  4.09921875 39.8158482142857  C 4.47647569444444 39.4624255952381  4.92274305555556 39.2857142857143  5.43802083333333 39.2857142857143  L 7 39.2857142857143  Z M 1.9046875 44  L 51.0953125 44  C 51.6105902777778 44.6428571428571  52.0568576388889 44.8195684523809  52.4341145833333 45.1729910714286  C 52.8113715277778 45.5264136904762  53 45.9449404761905  53 46.4285714285714  L 53 50  L 0 50  L 0 46.4285714285714  C 0 45.9449404761905  0.188628472222222 45.5264136904762  0.565885416666667 45.1729910714286  C 0.943142361111111 44.8195684523809  1.38940972222222 44.6428571428571  1.9046875 44  Z " fill-rule="nonzero" fill="#2699fb" stroke="none" transform="matrix(1 0 0 1 44 0 )" />
  </g>
</svg>