<?xml version="1.0" encoding="utf-8"?>
<svg version="1.1" xmlns:xlink="http://www.w3.org/1999/xlink" width="14px" height="14px" viewBox="439 1735  14 14" xmlns="http://www.w3.org/2000/svg">
  <path d="M 439.5 1737  A 1.5 1.5 0 0 1 441 1735.5 L 451 1735.5  A 1.5 1.5 0 0 1 452.5 1737 L 452.5 1747  A 1.5 1.5 0 0 1 451 1748.5 L 441 1748.5  A 1.5 1.5 0 0 1 439.5 1747 L 439.5 1737  Z " fill-rule="nonzero" fill="#ffffff" stroke="none" />
  <path d="M 439.5 1737  A 1.5 1.5 0 0 1 441 1735.5 L 451 1735.5  A 1.5 1.5 0 0 1 452.5 1737 L 452.5 1747  A 1.5 1.5 0 0 1 451 1748.5 L 441 1748.5  A 1.5 1.5 0 0 1 439.5 1747 L 439.5 1737  Z " stroke-width="1" stroke="#2699fb" fill="none" />
  <path d="M 442.5 1742.5  L 445.5 1745.5  " stroke-width="3" stroke="#2699fb" fill="none" />
  <path d="M 445.5 1745.5  L 450.5 1738.5  " stroke-width="3" stroke="#2699fb" fill="none" />
</svg>