<?xml version="1.0" encoding="utf-8"?>
<svg version="1.1" xmlns:xlink="http://www.w3.org/1999/xlink" width="14px" height="14px" viewBox="36 3352  14 14" xmlns="http://www.w3.org/2000/svg">
  <path d="M 36.5 3354  A 1.5 1.5 0 0 1 38 3352.5 L 48 3352.5  A 1.5 1.5 0 0 1 49.5 3354 L 49.5 3364  A 1.5 1.5 0 0 1 48 3365.5 L 38 3365.5  A 1.5 1.5 0 0 1 36.5 3364 L 36.5 3354  Z " fill-rule="nonzero" fill="#f0f0f0" stroke="none" />
  <path d="M 36.5 3354  A 1.5 1.5 0 0 1 38 3352.5 L 48 3352.5  A 1.5 1.5 0 0 1 49.5 3354 L 49.5 3364  A 1.5 1.5 0 0 1 48 3365.5 L 38 3365.5  A 1.5 1.5 0 0 1 36.5 3364 L 36.5 3354  Z " stroke-width="1" stroke="#2699fb" fill="none" />
  <path d="M 39.5 3359.5  L 42.5 3362.5  " stroke-width="3" stroke="#2699fb" fill="none" />
  <path d="M 42.5 3362.5  L 47.5 3355.5  " stroke-width="3" stroke="#2699fb" fill="none" />
</svg>