<?xml version="1.0" encoding="utf-8"?>
<svg version="1.1" xmlns:xlink="http://www.w3.org/1999/xlink" width="14px" height="14px" viewBox="439 2104  14 14" xmlns="http://www.w3.org/2000/svg">
  <path d="M 439.5 2106  A 1.5 1.5 0 0 1 441 2104.5 L 451 2104.5  A 1.5 1.5 0 0 1 452.5 2106 L 452.5 2116  A 1.5 1.5 0 0 1 451 2117.5 L 441 2117.5  A 1.5 1.5 0 0 1 439.5 2116 L 439.5 2106  Z " fill-rule="nonzero" fill="#ffffff" stroke="none" />
  <path d="M 439.5 2106  A 1.5 1.5 0 0 1 441 2104.5 L 451 2104.5  A 1.5 1.5 0 0 1 452.5 2106 L 452.5 2116  A 1.5 1.5 0 0 1 451 2117.5 L 441 2117.5  A 1.5 1.5 0 0 1 439.5 2116 L 439.5 2106  Z " stroke-width="1" stroke="#2699fb" fill="none" />
  <path d="M 442.5 2111.5  L 445.5 2114.5  " stroke-width="3" stroke="#2699fb" fill="none" />
  <path d="M 445.5 2114.5  L 450.5 2107.5  " stroke-width="3" stroke="#2699fb" fill="none" />
</svg>