<?xml version="1.0" encoding="utf-8"?>
<svg version="1.1" xmlns:xlink="http://www.w3.org/1999/xlink" width="24px" height="25px" xmlns="http://www.w3.org/2000/svg">
  <g transform="matrix(1 0 0 1 -274 -2008 )">
    <path d="M 18.0625 0.948660714285715  L 22.9375 5.30133928571428  C 23.2291666666667 5.56175595238095  23.4791666666667 5.91517857142857  23.6875 6.36160714285714  C 23.8958333333333 6.80803571428572  24 7.2172619047619  24 7.58928571428572  L 24 23.6607142857143  C 24 24.0327380952381  23.8541666666667 24.3489583333333  23.5625 24.609375  C 23.2708333333333 24.8697916666667  22.9166666666667 25  22.5 25  L 1.5 25  C 1.08333333333333 25  0.729166666666667 24.8697916666667  0.4375 24.609375  C 0.145833333333333 24.3489583333333  0 24.0327380952381  0 23.6607142857143  L 0 1.33928571428572  C 0 0.967261904761904  0.145833333333333 0.651041666666666  0.4375 0.390625  C 0.729166666666667 0.130208333333334  1.08333333333333 0  1.5 0  L 15.5 0  C 15.9166666666667 0  16.375 0.0930059523809534  16.875 0.279017857142858  C 17.375 0.465029761904762  17.7708333333333 0.688244047619047  18.0625 0.948660714285715  Z M 16.640625 2.20424107142857  C 16.515625 2.09263392857143  16.3020833333333 1.99032738095238  16 1.89732142857143  L 16 7.14285714285714  L 21.875 7.14285714285714  C 21.7708333333333 6.87313988095238  21.65625 6.68247767857143  21.53125 6.57087053571428  L 16.640625 2.20424107142857  Z M 2 23  L 22 23  L 22 8.92857142857143  L 15.5 8.92857142857143  C 15.0833333333333 8.92857142857143  14.7291666666667 8.79836309523809  14.4375 8.53794642857143  C 14.1458333333333 8.27752976190476  14 7.96130952380952  14 7.58928571428572  L 14 2  L 2 2  L 2 23  Z M 11.6875 11.62109375  C 12.2604166666667 13.1463913690476  13.0208333333333 14.253162202381  13.96875 14.94140625  C 14.3125 15.1832217261905  14.75 15.4436383928571  15.28125 15.72265625  C 15.8958333333333 15.6575520833333  16.5052083333333 15.625  17.109375 15.625  C 18.640625 15.625  19.5625 15.8528645833333  19.875 16.30859375  C 20.0416666666667 16.5132068452381  20.0520833333333 16.7550223214286  19.90625 17.0340401785714  C 19.90625 17.0433407738095  19.9010416666667 17.0526413690476  19.890625 17.0619419642857  L 19.859375 17.08984375  L 19.859375 17.1037946428571  C 19.796875 17.4572172619048  19.4270833333333 17.6339285714286  18.75 17.6339285714286  C 18.25 17.6339285714286  17.6510416666667 17.5409226190476  16.953125 17.3549107142857  C 16.2552083333333 17.1688988095238  15.578125 16.9224330357143  14.921875 16.6155133928571  C 12.6197916666667 16.8387276785714  10.578125 17.2247023809524  8.796875 17.7734375  C 7.203125 20.210193452381  5.94270833333333 21.4285714285714  5.015625 21.4285714285714  C 4.859375 21.4285714285714  4.71354166666667 21.3960193452381  4.578125 21.3309151785714  L 4.203125 21.1635044642857  C 4.19270833333333 21.1542038690476  4.16145833333333 21.1309523809524  4.109375 21.09375  C 4.00520833333333 21.000744047619  3.97395833333333 20.8333333333333  4.015625 20.5915178571429  C 4.109375 20.219494047619  4.40104166666667 19.7939918154762  4.890625 19.3150111607143  C 5.38020833333333 18.8360305059524  6.06770833333333 18.3872767857143  6.953125 17.96875  C 7.09895833333333 17.8850446428571  7.21875 17.9129464285714  7.3125 18.0524553571429  C 7.33333333333333 18.071056547619  7.34375 18.0896577380952  7.34375 18.1082589285714  C 7.88541666666667 17.3177083333333  8.44270833333333 16.4015997023809  9.015625 15.3599330357143  C 9.72395833333333 14.0950520833333  10.265625 12.8766741071429  10.640625 11.7047991071429  C 10.390625 10.942150297619  10.2317708333333 10.200427827381  10.1640625 9.47963169642857  C 10.0963541666667 8.75883556547619  10.1302083333333 8.16592261904762  10.265625 7.70089285714286  C 10.3802083333333 7.32886904761905  10.5989583333333 7.14285714285714  10.921875 7.14285714285714  L 11.25 7.14285714285714  L 11.265625 7.14285714285714  C 11.5052083333333 7.14285714285714  11.6875 7.21261160714286  11.8125 7.35212053571428  C 12 7.54743303571428  12.046875 7.86365327380952  11.953125 8.30078125  C 11.9322916666667 8.35658482142857  11.9114583333333 8.39378720238095  11.890625 8.41238839285714  C 11.9010416666667 8.44029017857143  11.90625 8.47749255952381  11.90625 8.52399553571428  L 11.90625 8.94252232142857  C 11.8854166666667 10.0864955357143  11.8125 10.9793526785714  11.6875 11.62109375  Z M 5.7421875 19.6428571428571  C 5.36197916666667 20.0520833333333  5.10416666666667 20.3962053571429  4.96875 20.6752232142857  C 5.51041666666667 20.4520089285714  6.22395833333333 19.7172619047619  7.109375 18.4709821428571  C 6.578125 18.843005952381  6.12239583333333 19.233630952381  5.7421875 19.6428571428571  Z M 11.1875 7.8125  L 11.1875 7.84040178571428  C 11.03125 8.23102678571428  11.0208333333333 8.84486607142857  11.15625 9.68191964285714  C 11.1666666666667 9.61681547619047  11.203125 9.41220238095238  11.265625 9.06808035714286  C 11.265625 9.04017857142857  11.3020833333333 8.84021577380952  11.375 8.46819196428572  C 11.3854166666667 8.43098958333333  11.40625 8.39378720238095  11.4375 8.35658482142857  C 11.4270833333333 8.34728422619047  11.421875 8.33798363095238  11.421875 8.32868303571428  C 11.4114583333333 8.31008184523809  11.40625 8.29613095238095  11.40625 8.28683035714286  C 11.3958333333333 8.08221726190476  11.328125 7.91480654761905  11.203125 7.78459821428572  C 11.203125 7.79389880952381  11.1979166666667 7.8031994047619  11.1875 7.8125  Z M 9.953125 15.9040178571429  C 9.640625 16.4248511904762  9.40625 16.8108258928571  9.25 17.0619419642857  C 10.65625 16.5597098214286  12.1354166666667 16.1830357142857  13.6875 15.9319196428571  C 13.6666666666667 15.922619047619  13.5989583333333 15.8784412202381  13.484375 15.7993861607143  C 13.3697916666667 15.7203311011905  13.2864583333333 15.6575520833333  13.234375 15.6110491071429  C 12.4427083333333 14.9879092261905  11.78125 14.1694568452381  11.25 13.1556919642857  C 10.96875 13.9555431547619  10.5364583333333 14.8716517857143  9.953125 15.9040178571429  Z M 19.375 16.8805803571429  C 19.375 16.8712797619048  19.3645833333333 16.8573288690476  19.34375 16.8387276785714  C 19.09375 16.6155133928571  18.3645833333333 16.50390625  17.15625 16.50390625  C 17.9479166666667 16.7643229166667  18.59375 16.89453125  19.09375 16.89453125  C 19.2395833333333 16.89453125  19.3333333333333 16.8898809523809  19.375 16.8805803571429  Z " fill-rule="nonzero" fill="#2699fb" stroke="none" transform="matrix(1 0 0 1 274 2008 )" />
  </g>
</svg>