<?xml version="1.0" encoding="utf-8"?>
<svg version="1.1" xmlns:xlink="http://www.w3.org/1999/xlink" width="14px" height="14px" viewBox="439 1138  14 14" xmlns="http://www.w3.org/2000/svg">
  <path d="M 439.5 1140  A 1.5 1.5 0 0 1 441 1138.5 L 451 1138.5  A 1.5 1.5 0 0 1 452.5 1140 L 452.5 1150  A 1.5 1.5 0 0 1 451 1151.5 L 441 1151.5  A 1.5 1.5 0 0 1 439.5 1150 L 439.5 1140  Z " fill-rule="nonzero" fill="#f0f0f0" stroke="none" />
  <path d="M 439.5 1140  A 1.5 1.5 0 0 1 441 1138.5 L 451 1138.5  A 1.5 1.5 0 0 1 452.5 1140 L 452.5 1150  A 1.5 1.5 0 0 1 451 1151.5 L 441 1151.5  A 1.5 1.5 0 0 1 439.5 1150 L 439.5 1140  Z " stroke-width="1" stroke="#2699fb" fill="none" />
  <path d="M 442.5 1145.5  L 445.5 1148.5  " stroke-width="3" stroke="#2699fb" fill="none" />
  <path d="M 445.5 1148.5  L 450.5 1141.5  " stroke-width="3" stroke="#2699fb" fill="none" />
</svg>