<?xml version="1.0" encoding="utf-8"?>
<svg version="1.1" xmlns:xlink="http://www.w3.org/1999/xlink" width="14px" height="14px" viewBox="73 1582  14 14" xmlns="http://www.w3.org/2000/svg">
  <path d="M 73.5 1584  A 1.5 1.5 0 0 1 75 1582.5 L 85 1582.5  A 1.5 1.5 0 0 1 86.5 1584 L 86.5 1594  A 1.5 1.5 0 0 1 85 1595.5 L 75 1595.5  A 1.5 1.5 0 0 1 73.5 1594 L 73.5 1584  Z " fill-rule="nonzero" fill="#f0f0f0" stroke="none" />
  <path d="M 73.5 1584  A 1.5 1.5 0 0 1 75 1582.5 L 85 1582.5  A 1.5 1.5 0 0 1 86.5 1584 L 86.5 1594  A 1.5 1.5 0 0 1 85 1595.5 L 75 1595.5  A 1.5 1.5 0 0 1 73.5 1594 L 73.5 1584  Z " stroke-width="1" stroke="#2699fb" fill="none" />
</svg>