<?xml version="1.0" encoding="utf-8"?>
<svg version="1.1" xmlns:xlink="http://www.w3.org/1999/xlink" width="25px" height="18px" xmlns="http://www.w3.org/2000/svg">
  <g transform="matrix(1 0 0 1 -1202 -32 )">
    <path d="M 9.92196209587514 5.12857142857143  L 9.92196209587514 12.3142857142857  L 16.6666666666667 8.74285714285714  L 9.92196209587514 5.12857142857143  Z M 3.76254180602007 0.257142857142856  C 6.09438870308436 0.0857142857142854  9.00687476774433 0  12.5 0  C 14.0607580824972 0  15.5680973615756 0.0214285714285714  17.0220178372352 0.0642857142857141  C 18.4759383128948 0.107142857142857  19.5419918246005 0.152380952380951  20.2201783723523 0.199999999999999  L 21.2374581939799 0.257142857142856  C 21.2467484206615 0.257142857142856  21.3257153474545 0.264285714285713  21.474358974359 0.278571428571428  C 21.6230026012635 0.292857142857144  21.7298402081011 0.307142857142858  21.7948717948718 0.321428571428572  C 21.8599033816425 0.335714285714287  21.9690635451505 0.357142857142858  22.1223522853958 0.385714285714286  C 22.275641025641 0.414285714285715  22.4080267558528 0.45238095238095  22.5195094760312 0.5  C 22.6309921962096 0.547619047619046  22.761055369751 0.609523809523807  22.9096989966555 0.685714285714285  C 23.05834262356 0.76190476190476  23.2023411371237 0.854761904761904  23.3416945373467 0.964285714285715  C 23.4810479375697 1.07380952380952  23.6157562244519 1.2  23.7458193979933 1.34285714285714  C 23.8015607580825 1.4  23.8735600148644 1.48809523809524  23.9618171683389 1.60714285714286  C 24.0500743218135 1.72619047619047  24.1847826086957 2.0047619047619  24.3659420289855 2.44285714285714  C 24.5471014492754 2.88095238095238  24.6701969528057 3.36190476190476  24.7352285395764 3.88571428571429  C 24.8095503530286 4.49523809523809  24.8676142697882 5.14523809523809  24.9094202898551 5.83571428571429  C 24.951226309922 6.52619047619048  24.9767744332962 7.06666666666666  24.9860646599777 7.45714285714286  L 24.9860646599777 8.02857142857143  L 24.9860646599777 9.97142857142857  C 24.9953548866592 11.3523809523809  24.9117428465255 12.7333333333333  24.7352285395764 14.1142857142857  C 24.6701969528057 14.6380952380952  24.5540691192865 15.1119047619048  24.386845039019 15.5357142857143  C 24.2196209587514 15.9595238095238  24.0709773318469 16.252380952381  23.9409141583055 16.4142857142857  L 23.7458193979933 16.6571428571429  C 23.6157562244519 16.8  23.4810479375697 16.9261904761905  23.3416945373467 17.0357142857143  C 23.2023411371237 17.1452380952381  23.05834262356 17.2357142857143  22.9096989966555 17.3071428571429  C 22.761055369751 17.3785714285714  22.6309921962096 17.4380952380952  22.5195094760312 17.4857142857143  C 22.4080267558528 17.5333333333333  22.275641025641 17.5714285714286  22.1223522853958 17.6  C 21.9690635451505 17.6285714285714  21.8575808249721 17.65  21.7879041248606 17.6642857142857  C 21.7182274247492 17.6785714285714  21.6113898179116 17.6928571428571  21.4673913043478 17.7071428571429  C 21.3233927907841 17.7214285714286  21.2467484206615 17.7285714285714  21.2374581939799 17.7285714285714  C 18.9056112969156 17.9095238095238  15.9931252322557 18  12.5 18  C 10.5769230769231 17.9809523809524  8.90700483091788 17.95  7.49024526198439 17.9071428571429  C 6.07348569305091 17.8642857142857  5.14214046822743 17.8285714285714  4.69620958751393 17.8  L 4.0133779264214 17.7428571428571  L 3.51170568561873 17.6857142857143  C 3.17725752508361 17.6380952380952  2.92409884801189 17.5904761904762  2.75222965440357 17.5428571428571  C 2.58036046079524 17.4952380952381  2.3434596804162 17.3952380952381  2.04152731326644 17.2428571428571  C 1.73959494611669 17.0904761904762  1.47714604236343 16.8952380952381  1.25418060200669 16.6571428571429  C 1.1984392419175 16.6  1.12643998513564 16.5119047619048  1.03818283166109 16.3928571428571  C 0.949925678186548 16.2738095238095  0.815217391304348 15.9952380952381  0.634057971014493 15.5571428571429  C 0.452898550724638 15.1190476190476  0.329803047194352 14.6380952380952  0.264771460423634 14.1142857142857  C 0.190449646971386 13.5047619047619  0.132385730211817 12.8547619047619  0.0905797101449275 12.1642857142857  C 0.0487736900780379 11.4738095238095  0.0232255667038276 10.9333333333333  0.0139353400222965 10.5428571428571  L 0.0139353400222965 9.97142857142857  L 0.0139353400222965 8.02857142857143  C 0.00464511334076551 6.64761904761905  0.0882571534745448 5.26666666666667  0.264771460423634 3.88571428571429  C 0.329803047194352 3.36190476190476  0.445930880713489 2.88809523809523  0.613154960981048 2.46428571428571  C 0.780379041248606 2.04047619047619  0.929022668153103 1.74761904761905  1.05908584169454 1.58571428571429  L 1.25418060200669 1.34285714285714  C 1.38424377554812 1.2  1.51895206243032 1.07380952380952  1.65830546265329 0.964285714285715  C 1.79765886287625 0.854761904761904  1.94165737643999 0.76190476190476  2.09030100334448 0.685714285714285  C 2.23894463024898 0.609523809523807  2.36900780379041 0.547619047619046  2.48049052396878 0.5  C 2.59197324414716 0.45238095238095  2.72435897435897 0.414285714285715  2.87764771460424 0.385714285714286  C 3.0309364548495 0.357142857142858  3.14009661835749 0.335714285714287  3.2051282051282 0.321428571428572  C 3.27015979189892 0.307142857142858  3.37699739873653 0.292857142857144  3.52564102564103 0.278571428571428  C 3.67428465254552 0.264285714285713  3.75325157933854 0.257142857142856  3.76254180602007 0.257142857142856  Z " fill-rule="nonzero" fill="#ffffff" stroke="none" transform="matrix(1 0 0 1 1202 32 )" />
  </g>
</svg>