<?xml version="1.0" encoding="utf-8"?>
<svg version="1.1" xmlns:xlink="http://www.w3.org/1999/xlink" width="14px" height="14px" viewBox="534 355  14 14" xmlns="http://www.w3.org/2000/svg">
  <path d="M 534.5 357  A 1.5 1.5 0 0 1 536 355.5 L 546 355.5  A 1.5 1.5 0 0 1 547.5 357 L 547.5 367  A 1.5 1.5 0 0 1 546 368.5 L 536 368.5  A 1.5 1.5 0 0 1 534.5 367 L 534.5 357  Z " fill-rule="nonzero" fill="#ffffff" stroke="none" />
  <path d="M 534.5 357  A 1.5 1.5 0 0 1 536 355.5 L 546 355.5  A 1.5 1.5 0 0 1 547.5 357 L 547.5 367  A 1.5 1.5 0 0 1 546 368.5 L 536 368.5  A 1.5 1.5 0 0 1 534.5 367 L 534.5 357  Z " stroke-width="1" stroke="#2699fb" fill="none" />
</svg>