<?xml version="1.0" encoding="utf-8"?>
<svg version="1.1" xmlns:xlink="http://www.w3.org/1999/xlink" width="141px" height="37px" xmlns="http://www.w3.org/2000/svg">
  <g transform="matrix(1 0 0 1 -1052 -100 )">
    <path d="M 76 20.8974357021809  C 76.8394222234947 20.4477899185559  77.7918157872133 18.9857659779553  79.0244438400092 18.9857659779553  L 79 18.9857659779553  L 79 34.7287695553855  L 76 34.7287695553855  L 76 20.8974357021809  Z M 95.2736707990953 22.4718710886878  C 93.8169897214189 22.4718710886878  92.6960517651101 23.090302827127  91.9118661780285 24.3271663040055  L 91.9118661780285 18.9857659779553  L 91.5757866407078 18.9857659779553  C 90.1191055630315 18.9857659779553  89.3345835599966 19.7729836712087  88.9423225584791 20.4474523466463  L 88.9423225584791 20.33504090074  L 88.9423225584791 29.3870316574256  C 88.9423225584791 32.9291737051565  90.7912646376729 34.7284319834759  94.4894852120136 34.7284319834759  C 98.1877057863544 34.6720574745679  99.9808028173047 32.6483138763456  99.9808028173047 28.7125629819881  C 99.9804664013514 24.608363704726  98.4117588112349 22.5842825345941  95.2736707990953 22.4718710886878  Z M 96.9550777335586 28.5437770271739  C 96.9547413176053 30.9614670439325  96.0581928021302 32.1422935838127  94.3774586995734 32.1422935838127  C 92.6963881810634 32.1422935838127  91.856021129785 30.9054301069342  91.9122025939817 28.5437770271739  C 92.024229106422 26.2384984563215  92.8087511094569 25.1140464253493  94.4336401637702 25.1140464253493  C 96.0585292180834 25.1140464253493  96.8430512211183 26.2384984563215  96.9550777335586 28.5437770271739  Z M 101.717381968105 34.6723950464775  L 101.717381968105 28.5437770271739  C 101.829408480545 24.7204375787226  103.678350559739 22.5839449626844  107.656805623157 22.5839449626844  L 108.553354138632 22.5839449626844  L 108.553354138632 25.6764412267902  L 107.152518109199 25.6764412267902  C 105.471447590689 25.6764412267902  104.743107051851 26.7448563207641  104.743107051851 28.4877400901756  L 104.743107051851 34.6723950464775  L 101.717381968105 34.6723950464775  Z M 113.260149740888 31.6362732912797  C 113.764437254846 32.0862566468143  114.436932745441 32.3110795386269  115.333144844962 32.3110795386269  C 115.94945887136 32.3110795386269  116.509927849515 32.1422935838127  116.958033899276 31.8050592460939  C 117.40647636499 31.4678249083751  117.686374438114 31.1302529987467  117.798400950554 30.7930186610279  L 120.60007300942 30.7930186610279  C 120.151630543705 32.1986680927206  119.479471469064 33.1543341688786  118.527077905345 33.7731034792275  C 117.574684341627 34.3915352176667  116.509927849515 34.6727326183872  115.165273284279 34.6727326183872  C 114.268724768804 34.6727326183872  113.428357717525 34.503946663573  112.700017178687 34.2227492628525  C 111.971676639849 33.9415518621321  111.355362613451 33.491906078507  110.851075099493 32.985885785974  C 110.346787585536 32.4234909845331  109.954526584018 31.8050592460939  109.674292094941 31.0742160617484  C 109.394057605864 30.3433728774029  109.282031093423 29.4997806752415  109.282031093423 28.6004891079915  C 109.282031093423 27.7572344777397  109.45023907006 26.9136422755783  109.730473559138 26.1827990912328  C 110.010708048215 25.4519559068873  110.402969049732 24.7771496595402  110.90725656369 24.2711293670072  C 111.411544077648 23.7087345655663  112.027858104046 23.3154632908492  112.756198642884 22.9778913812208  C 113.484539181722 22.640657043502  114.269061184757 22.5279080256861  115.165609700232 22.5279080256861  C 116.118003263951 22.5279080256861  117.014551779426 22.6966939805003  117.743228734217 23.090302827127  C 118.471569273055 23.4839116737537  119.087883299453 23.9899319662867  119.536325765167 24.608363704726  C 119.984431814928 25.2267954431652  120.320847768202 25.9576386275107  120.544900793083 26.8012308296721  C 120.768953817963 27.5884485229255  120.82513528216 28.4880776620852  120.768953817963 29.3877068012449  L 112.420119105563 29.3877068012449  C 112.53180920205 30.4554467513995  112.811707275174 31.186289935745  113.260149740888 31.6362732912797  Z M 116.846007386835 25.564029780884  C 116.453746385318 25.1704209342573  115.893613823117 24.9455980424447  115.109091820082 24.9455980424447  C 114.604804306124 24.9455980424447  114.156698256363 25.058009488351  113.820282303089 25.2267954431652  C 113.484202765769 25.3955813979794  113.203968276691 25.6204042897919  113.035760300054 25.8452271816044  C 112.811707275174 26.1264245823249  112.699680762734 26.3512474741374  112.58731783434 26.6324448748579  C 112.4752913219 26.9136422755783  112.4752913219 27.1948396762988  112.419109857703 27.4196625681113  L 117.57401150972 27.4196625681113  C 117.51850287743 26.5760703659499  117.238268388353 25.9576386275107  116.846007386835 25.564029780884  Z M 83.0028989034272 21.6846533954344  L 83.0028989034272 18.9857659779553  L 85.9727789389298 18.9857659779553  L 85.9727789389298 21.6846533954344  L 83.0028989034272 21.6846533954344  Z M 83 34.6723950464775  L 83 23.0339283182191  L 86 23.0339283182191  L 86 34.6723950464775  L 83 34.6723950464775  Z M 137.858211412374 10.1022236041742  C 137.858211412374 11.1706386981481  137.690003435737 12.0702678373078  137.18571592178 12.7447365127454  C 136.681428407822 13.3071313141863  136.008932917227 13.644365651905  135.168565865949 13.644365651905  C 134.328198814671 13.644365651905  133.655703324076 13.3071313141863  133.151415810118 12.7447365127454  C 132.647128296161 12.1823417113044  132.478920319524 11.2266756351464  132.478920319524 10.1022236041742  C 132.478920319524 8.92139706429406  132.702973344404 8.07814243404231  133.151415810118 7.51574763260139  C 133.655703324076 6.95335283116047  134.328198814671 6.61611849344169  135.168565865949 6.61611849344169  C 136.008932917227 6.61611849344169  136.681428407822 6.95335283116047  137.18571592178 7.51574763260139  C 137.690003435737 8.07814243404231  137.858211412374 9.03380851020032  137.858211412374 10.1022236041742  Z M 140.995626592607 10.0458490952663  C 141.051808056804 8.47175128066902  140.547520542847 7.00972734006841  139.538945514931 5.77286386318994  C 138.642396999456 4.59203732330978  137.129534457583 3.91756864787223  135.168565865949 3.91756864787223  C 133.263442322559 3.91756864787223  131.694734732442 4.47996344931315  130.798186216967 5.77286386318994  C 129.901637701492 6.95369040307009  129.341505139291 8.41537677176108  129.341505139291 10.0458490952663  C 129.341505139291 11.7326959276794  129.845792653248 13.1943822963704  130.798186216967 14.3188343273426  C 131.694734732442 15.4996608672228  133.207597274315 16.118092605662  135.168565865949 16.118092605662  C 137.07368940934 16.118092605662  138.642396999456 15.5556978042211  139.538945514931 14.3188343273426  C 140.435494030406 13.1380077874624  140.995626592607 11.6763214187715  140.995626592607 10.0458490952663  Z M 124.970789074355 12.7447365127454  C 124.578528072838 13.3071313141863  123.906032582243 13.644365651905  123.065665530965 13.644365651905  C 122.225298479686 13.644365651905  121.552802989092 13.3071313141863  121.216723451771 12.7447365127454  C 120.824462450253 12.0699302653982  120.656254473616 11.2266756351464  120.656254473616 10.1022236041742  C 120.656254473616 9.09018301910826  120.824462450253 8.30296532585482  121.216723451771 7.68453358741559  C 121.608984453288 7.00972734006841  122.225298479686 6.67249300234964  123.121846995161 6.67249300234964  C 123.682315973316 6.67249300234964  124.186603487273 6.84127895716384  124.634709537034 7.17851329488261  C 125.307205027629 7.74090809632353  125.699466029147 8.86536012729574  125.699466029147 10.3270464959867  C 125.530921636556 11.3390870810527  125.418895124116 12.1826792832141  124.970789074355 12.7447365127454  Z M 128.276748647178 11.3954615899606  L 128.444620207862 0.487838046047658  C 128.444620207862 0.487838046047658  125.418895124116 0.150603708328883  125.418895124116 2.56795615317788  L 125.418895124116 5.77286386318994  C 125.082815586795 5.26684357065696  124.690554585278 4.87323472403024  124.07424055888 4.47962587740353  C 123.569953044922 4.14239153968475  122.897457554328 4.08601703077681  122.225298479686 4.08601703077681  C 120.712435937813 4.08601703077681  119.535652933261 4.64841183221773  118.583259369542 5.77286386318994  C 117.686710854067 6.84127895716384  117.238604804306 8.47175128066902  117.238604804306 10.4958324508009  C 117.238604804306 12.1826792832141  117.630865805824 13.644365651905  118.583259369542 14.6003692999727  C 119.479807885017 15.6687843939466  121.272904915968 16.1184301775716  122.841612506084 16.1184301775716  C 128.388775159619 16.1184301775716  128.276748647178 11.3954615899606  128.276748647178 11.3954615899606  Z M 113.596229278209 10.3267089240771  L 113.540047814012 11.3390870810527  C 113.540047814012 12.3511276661186  113.203968276691 13.0259339134658  112.699680762734 13.4192051881829  C 112.139211784579 13.7564395259017  111.522897758181 13.9815999896238  110.906583731783 13.9815999896238  C 110.514322730266 13.9815999896238  110.178243192945 13.9252254807159  109.898008703868 13.644365651905  C 109.617774214791 13.3631682511846  109.505747702351 13.0819708504641  109.505747702351 12.5759505579312  C 109.505747702351 12.0135557564902  109.729800727231 11.5639099728652  110.178243192945 11.2827125721447  C 110.402296217826 11.1139266173305  110.906583731783 10.945478234426  111.522897758181 10.889103725518  L 112.195393248776 10.7203177707038  C 112.531472786097 10.6639432617959  112.75586222693 10.5515318158896  113.035760300054 10.5515318158896  C 113.203968276691 10.4951573069817  113.428021301572 10.3827458610754  113.596229278209 10.3267089240771  Z M 116.453409969365 7.51608520451101  C 116.509591433561 6.27888415572292  116.061485383801 5.26684357065696  115.052910355885 4.76082327812399  C 114.04433532797 4.25480298559101  112.979915251811 4.02998009377849  111.691105734818 4.02998009377849  C 109.785982191428 4.02998009377849  108.385146161995 4.53600038631147  107.60062415896 5.54804097137742  C 107.096336645002 6.2228472187246  106.872283620122 7.00972734006841  106.760257107682 7.96573098813605  L 109.617774214791 7.96573098813605  C 109.673955678988 7.57212214150933  109.841827239671 7.23488780379055  110.010035216308 6.95369040307009  C 110.346114753629 6.61645606535132  110.850402267587 6.44767011053712  111.522897758181 6.44767011053712  C 112.195393248776 6.44767011053712  112.587654250293 6.50404461944506  112.979578835858 6.67249300234963  C 113.315658373178 6.84127895716384  113.483866349815 7.17851329488261  113.483866349815 7.68453358741559  C 113.483866349815 8.07814243404231  113.259813324935 8.35933983476277  112.811370859221 8.52778821766734  C 112.58731783434 8.58416272657528  112.138875368626 8.69657417248154  111.634587854668 8.75261110947985  L 110.626012826753 8.8089856183878  C 109.449229822201 8.977771573202  108.608862770922 9.20259446501452  107.992548744524 9.53982880273329  C 106.927792252412 10.1022236041742  106.367659690211 11.2266756351464  106.367659690211 12.5759505579312  C 106.367659690211 13.644365651905  106.703739227532 14.4876202821568  107.376234718126 15.106052020596  C 108.048730208721 15.668446822037  108.889097259999 15.9493066508478  109.953853752112 16.0056811597557  C 116.509591433561 16.2305040515682  116.453409969365 12.5199136209328  116.453409969365 11.7887328646777  L 116.453409969365 7.51608520451101  Z M 97.9067984653706 8.13519208676951  C 98.4114223952816 7.1224763578843  99.0839178858763 6.61645606535132  100.204519426232 6.61645606535132  C 100.93285996507 6.61645606535132  101.493328943224 6.84127895716384  101.885589944742 7.2912623126985  C 102.109642969622 7.62849665041727  102.277850946259 8.02210549704399  102.277850946259 8.47208885257865  L 105.471784006642 8.47208885257865  C 105.303576030005 6.84161652907347  104.743443467804 5.66078998919331  103.790713488132 5.09873275966202  C 102.894164972657 4.42392651231484  101.605355455665 4.19910362050232  100.092492913792 4.19910362050232  C 98.2993958828414 4.19910362050232  96.8985598534086 4.7051239130353  95.8899848254932 5.82957594400751  C 94.8814097975778 6.95402797497972  94.3771222836201 8.47208885257865  94.3771222836201 10.3837585768043  C 94.3771222836201 12.1830168551237  94.7693832851376 13.5322917779084  95.7217768488562 14.6007068718823  C 96.6183253643313 15.6691219658562  98.0750064420076 16.2311791953875  99.9801299853981 16.2311791953875  C 101.885253528789 16.2311791953875  103.341934606465 15.5563729480403  104.35050963438 14.3195094711619  C 104.910978612535 13.4762548409101  105.247058149855 12.6326626387487  105.359084662296 11.6769965625907  L 102.165151601913 11.6769965625907  C 102.108970137716 12.2393913640316  101.941098577032 12.7454116565646  101.604682623758 13.1386829312817  C 101.268603086437 13.4759172690005  100.76431557248 13.7010777327226  99.9797935694449 13.7010777327226  C 98.9712185415295 13.7010777327226  98.1866965384946 13.1950574401896  97.9067984653706 12.2393913640316  C 97.7385904887336 11.7333710714987  97.5707189280499 11.0585648241515  97.5707189280499 10.2153101938997  C 97.5707189280499 9.37205556364798  97.6269003922467 8.58483787039454  97.9067984653706 8.13519208676951  Z M 93.7046267930254 4.19876604859269  C 93.648781744782 4.08635460268644  93.648781744782 4.08635460268644  93.5367552323417 4.08635460268644  C 86.8689910384516 4.08635460268644  87.3170970882126 9.98981215826795  87.3170970882126 9.98981215826795  L 87.3170970882126 15.9496442227574  L 90.3428221719587 15.9496442227574  L 90.3428221719587 10.3834210048947  C 90.3428221719587 9.48379186573498  90.3990036361554 8.75294868138948  90.6789017092794 8.35933983476276  C 91.0711627107968 7.62849665041727  91.8556847138317 7.17851329488261  93.0883127666275 7.17851329488261  L 93.4243923039482 7.17851329488261  C 93.5926002805852 7.17851329488261  93.7604718412689 7.17851329488261  93.9286798179059 7.23488780379055  L 93.9286798179059 4.19876604859269  L 93.7046267930254 4.19876604859269  Z M 77.6797892747731 8.86569769920537  C 77.8476608354568 8.19089145185819  78.0717138603373 7.62849665041727  78.5201563260515 7.17885086679224  C 78.9124173275689 6.78524202016552  79.5287313539669 6.50404461944506  80.3132533570018 6.50404461944506  C 80.9857488475964 6.50404461944506  81.6020628739943 6.67283057425926  82.106350387952 7.06643942088598  C 82.6106379019097 7.4600482675127  82.8346909267902 8.07848000595193  82.8346909267902 8.86569769920537  L 77.6797892747731 8.86569769920537  Z M 85.8597431786297 12.688699575747  L 82.554456437713 12.745074084655  C 82.4982749735162 12.9138600394692  82.3304034128325 13.0823084223738  82.1621954361955 13.1386829312817  C 81.7699344346781 13.4759172690005  81.1536204082801 13.5322917779084  80.4811249176855 13.5322917779084  C 79.8086294270908 13.5322917779084  79.3043419131331 13.4759172690005  78.8562358633722 13.1386829312817  C 78.127895324534 12.745074084655  77.6794528588198 11.8454449454953  77.6794528588198 10.777367423431  L 85.9721061070232 10.777367423431  C 85.9721061070232 9.76532683836506  85.9721061070232 8.97810914511163  85.9159246428265 8.5284633614866  C 85.7477166661895 7.6288342223269  85.523663641309 6.84161652907347  85.0193761273513 6.16714785363592  C 84.5150886133937 5.43630466929042  83.842593122799 4.81787293085119  83.1142525839608 4.48030102122278  C 82.3859120451227 4.14306668350401  81.4331820654508 3.97428072868981  80.4246070375354 3.97428072868981  C 78.7435365190254 3.97428072868981  77.3988819537893 4.48030102122278  76.390306925874 5.604753052195  C 75.3817318979586 6.67316814616889  74.7654178715607 8.19122902376782  74.7654178715607 10.1589356849918  C 74.7654178715607 12.239053792122  75.3258868497151 13.8134891786289  76.558514902511 14.7131183177886  C 77.7352979070633 15.6127474569483  79.0799524722994 16.1748046864796  80.5928150141724 16.1748046864796  C 82.4417570933662 16.1748046864796  83.8987745869958 15.6124098850386  84.8511681507144 14.4879578540664  C 85.4116371288688 13.9255630526255  85.7477166661895 13.3071313141863  85.8597431786297 12.688699575747  Z M 73.4207633063246 9.03380851020032  L 73.4772811864747 15.8936072857591  L 70.675609127609 15.8936072857591  L 70.675609127609 8.977771573202  C 70.675609127609 8.30296532585482  70.507401150972 6.89765346607178  68.6584590717783 6.89765346607178  C 67.4816760672259 6.89765346607178  66.5854639677041 7.74090809632353  66.5854639677041 8.977771573202  L 66.5854639677041 15.8932697138495  L 63.7837919088384 15.8932697138495  L 63.7837919088384 8.977771573202  C 63.7837919088384 8.30296532585482  63.6155839322014 6.89765346607178  61.7666418530077 6.89765346607178  C 60.5898588484554 6.89765346607178  59.749491797177 7.74090809632353  59.749491797177 8.977771573202  L 59.749491797177 15.8932697138495  L 56.9478197383113 15.8932697138495  L 56.9478197383113 9.03380851020032  C 56.9478197383113 6.16647270981666  58.7967618175051 3.97360558487055  61.7104603888109 3.97360558487055  C 63.1671414664872 3.97360558487055  64.3439244710396 4.53600038631147  65.184291522318 5.60407790837574  C 66.0246585735964 4.59203732330978  67.2014415781487 3.97360558487055  68.658122655825 3.97360558487055  C 71.6838477395711 3.97360558487055  73.4207633063246 6.05372369200077  73.4207633063246 9.03380851020032  Z M 53.3424499670742 17.4879594149341  C 53.3424499670742 7.87357385680749  41.4074211927735 0.00207206809238518  26.6710567755605 0.00207206809238518  C 11.9346923583474 0.00207206809238518  0 7.87357385680749  0 17.4879594149341  L 0 18.5  C 0 28.7328172965658  10.4218298164744 36.9979279319076  26.6710567755605 36.9979279319076  C 42.9764651988433 36.9979279319076  53.3421135511209 28.7328172965658  53.3421135511209 18.5  L 53.3421135511209 17.4879594149341  Z " fill-rule="nonzero" fill="#2699fb" stroke="none" transform="matrix(1 0 0 1 1052 100 )" />
  </g>
</svg>