<?xml version="1.0" encoding="utf-8"?>
<svg version="1.1" xmlns:xlink="http://www.w3.org/1999/xlink" width="40px" height="22px" xmlns="http://www.w3.org/2000/svg">
  <g transform="matrix(1 0 0 1 -1053 -107 )">
    <path d="M 39.9929346033371 14.7320171739077  C 40.0487297275253 13.9962324156867  39.4329666702195 13.486555265699  39.4329666702195 13.486555265699  C 39.3768354308254 13.42977335506  31.1477268434788 6.18106944539525  29.3001015563554 4.76526180526936  C 28.2362969295142 3.97235512496831  27.6205338722084 3.745907505294  27.0047708149025 3.63268369545684  C 26.6689917241555 3.57590178481778  26.2209501546202 3.63268369545684  25.8851710638732 3.745907505294  C 25.0455552794027 3.97235512496831  23.8698242889792 4.76526180526936  22.8621509015322 5.55816848557041  C 21.7983462746911 6.40751706506957  20.8468041266382 7.20042374537062  19.9510571027735 7.37042946584683  C 18.7753261123501 7.6536589961602  17.3757423947619 7.31364755520777  16.7599793374561 6.86075231585915  C 16.4799953708972 6.69074659538293  16.3119377679208 6.46429897570862  16.2000114043384 6.23785135603431  C 15.9761586771737 5.67139229540757  16.4238641315031 5.21849705605894  16.4799953708972 5.16171514541989  L 18.7191948729559 2.67011130612053  L 19.5030155332382 1.87720462581948  C 18.7753261123501 1.99042843565664  18.1034318156501 2.16043415613285  17.4318736341561 2.33043987660906  C 16.5922578496855 2.55688749628337  15.8084371894032 2.78367512739864  15.0246165291209 2.78367512739864  C 14.6888374383739 2.78367512739864  12.8973433906446 2.50044559708527  12.5615642998975 2.38722178724811  C 10.4904224008153 1.82076272662137  8.69892835308602 1.25464367743559  6.01168728149204 0.00884175778591071  C 2.82094563138051 2.44366368644621  0.637541253510022 5.44494467573325  0.0217781962041839 8.78623710597272  C 0.469819765739491 8.89946091580988  1.25330431081586 9.12590853548419  1.53328827737468 9.18269044612324  C 8.81085471666836 10.8249457059235  11.050054218727 12.5239828763627  11.4980957882623 12.8636543058742  C 11.9461373577976 12.3539771558865  12.5619004151035 12.0707476255731  13.2895898359917 12.0707476255731  C 14.073410496274 12.0707476255731  14.8010999171622 12.4672009657237  15.2488053714915 13.0901019255485  C 15.6407157016327 12.750430496037  16.2564787589385 12.4672009657237  16.9841681798267 12.4672009657237  C 17.3199472705737 12.4672009657237  17.6560624765267 12.5239828763627  18.0479728066678 12.6372066861999  C 18.8875885911384 12.9204362165132  19.2794989212795 13.486555265699  19.5033516484442 13.9962324156867  C 19.783335615003 13.8830086058495  20.11911470575 13.7697847960124  20.5110250358912 13.7697847960124  C 20.9029353660323 13.7697847960124  21.2948456961735 13.8830086058495  21.7425511505029 14.0530143263258  C 23.0860036286969 14.6194733869525  23.3101924710675 15.9784991164393  23.1979299922792 16.9978534164147  L 23.477913958838 16.9978534164147  C 25.1013504035909 16.9978534164147  26.3890077575967 18.3004372467034  26.3890077575967 19.9426925065036  C 26.3890077575967 20.4523696564913  26.2770813940144 20.9052648958399  26.0532286668497 21.3017182359905  C 26.501270236385 21.5281658556648  27.5647387480202 22.0946249162915  28.5724121354672 21.9814011064544  C 29.3562327957495 21.8681772966172  29.6362167623083 21.6417296769429  29.7481431258907 21.4717239564667  C 29.8042743652848 21.3585001466295  29.9162007288672 21.2452763367924  29.8042743652848 21.1320525269552  L 27.7331324662026 18.8101143966911  C 27.7331324662026 18.8101143966911  27.3973533754556 18.4704429671796  27.509279739038 18.3568791459015  C 27.6212061026203 18.2433153246234  27.845058829785 18.4136610565406  28.0131164327614 18.5268848663777  C 29.0769210596026 19.433015356516  30.3084471742143 20.7355991868047  30.3084471742143 20.7355991868047  C 30.3084471742143 20.7355991868047  30.4203735377966 20.9056049072809  30.8684151073319 21.0188287171181  C 31.2603254374731 21.0756106277571  31.9880148583613 21.0188287171181  32.4918515520847 20.6223753769675  C 32.6037779156671 20.5091515671304  32.7718355186436 20.3959277572932  32.8276306428318 20.2827039474561  C 33.3314673365553 19.6030210769922  32.7714994034376 18.9236782179692  32.7714994034376 18.9236782179692  L 30.3642422984025 16.2052867475546  C 30.3642422984025 16.2052867475546  30.0284632076554 15.8656153180431  30.1403895712378 15.752051496765  C 30.2523159348201 15.6388276869279  30.4761686619848 15.8088334074041  30.6442262649613 15.9220572172412  C 31.4280469252436 16.5449581770661  32.4915154368788 17.6775362868786  33.4991888243258 18.696890586854  C 33.7230415514905 18.8668963073302  34.6187885753551 19.433015356516  35.7945195657786 18.6401086762149  C 36.5222089866668 18.1304315262272  36.6902665896433 17.5639724656005  36.6341353502491 17.1110772262519  C 36.578004110855 16.5446181656251  36.1302986565256 16.0917229262765  36.1302986565256 16.0917229262765  L 32.88342576702 12.750430496037  C 32.88342576702 12.750430496037  32.5476466762729 12.4672009657237  32.6595730398553 12.2971952452474  C 32.7714994034376 12.1839714354103  32.9953521306023 12.3539771558865  33.1634097335788 12.4672009657237  C 34.2272143604199 13.3733314558619  37.0260456803903 15.9781591049984  37.0260456803903 15.9781591049984  C 37.0821769197844 15.9781591049984  38.0337190678373 16.7142838746604  39.265245182449 15.9213771943593  C 39.7132867519843 15.638147664046  39.9929346033371 15.2416943238954  39.9929346033371 14.7320171739077  Z " fill-rule="nonzero" fill="#ffffff" stroke="none" transform="matrix(1 0 0 1 1053 107 )" />
  </g>
</svg>