<?xml version="1.0" encoding="utf-8"?>
<svg version="1.1" xmlns:xlink="http://www.w3.org/1999/xlink" width="14px" height="9px" xmlns="http://www.w3.org/2000/svg">
  <g transform="matrix(1 0 0 1 -1065 -120 )">
    <path d="M 11.7810577695474 4.66376025230137  C 11.2861332814912 4.66376025230137  10.7360704415301 4.93439457376753  10.6812622593971 4.93439457376753  C 10.6264540772641 4.93439457376753  10.6812622593971 4.71801707305149  10.736400611302 4.60982832269347  C 10.7915389632068 4.50163957233545  11.4512181674339 2.55359228360669  9.85649816922735 1.85020296070846  C 8.64675612503923 1.30893431777615  7.87680021700247 1.90445978145858  7.65690714892679 2.17476921178252  C 7.60176879702193 2.22902603253263  7.54696061488895 2.22902603253263  7.54696061488895 2.17476921178252  C 7.54696061488895 1.85020296070846  7.38187572894625 0.876179316344077  6.28208021879597 0.551288174127806  C 4.74216840272245 0.0642763519456116  3.80745777851487 1.14648874666802  3.53242635853432 1.52531181849219  C 3.42247982449649 0.659476924485825  2.70766226836458 0.0100195311954952  1.77262147438512 0.0100195311954952  C 0.782772498272678 0.0100195311954952  0.0128165902359162 0.767665674843844  0.0128165902359162 1.74168931920822  C 0.0128165902359162 2.71571296357261  0.782772498272678 3.47335910722095  1.77262147438512 3.47335910722095  C 2.26754596244134 3.47335910722095  2.65252391645972 3.31091353611281  2.98236351857324 2.98634728503876  L 2.98236351857324 3.04060410578888  C 2.92722516666838 3.47368399836317  2.76247045049756 5.04258332412554  4.41199863083704 5.63810878780797  C 5.07200800483596 5.90874310927413  5.62174067502516 5.69236560855809  6.11666516308138 5.36747446634182  C 6.28175004902408 5.2592857159838  6.28175004902408 5.3132176455917  6.28175004902408 5.42173128709193  C 6.22661169711922 5.8005543589161  6.28175004902408 6.66638925292247  7.54663044511706 7.15340107510466  C 8.48134106932464 7.53222414692883  9.03140390928573 7.15340107510466  9.36124351139925 6.8288348240306  C 9.52632839734195 6.66638925292247  9.58113657947493 6.72064607367258  9.58113657947493 6.93702357438862  C 9.63627493137979 8.07349278986114  10.6261239074922 8.99325961347541  11.7807275997755 8.99325961347541  C 12.9904696439636 8.99325961347541  13.9803186200761 8.01923596911102  13.9803186200761 6.8288348240306  C 13.9803186200761 5.63843367895018  12.9911299835074 4.66376025230137  11.7810577695474 4.66376025230137  Z " fill-rule="nonzero" fill="#ffffff" stroke="none" transform="matrix(1 0 0 1 1065 120 )" />
  </g>
</svg>