<?xml version="1.0" encoding="utf-8"?>
<svg version="1.1" xmlns:xlink="http://www.w3.org/1999/xlink" width="164px" height="37px" xmlns="http://www.w3.org/2000/svg">
  <g transform="matrix(1 0 0 1 -1041 -169 )">
    <path d="M 99.1824607232844 11.6560693641619  C 99.1824607232844 10.5867052023121  98.5421205721061 9.83815028901734  97.2614402697495 9.83815028901734  C 95.8740366088632 9.83815028901734  94.806803023566 10.9075144508671  94.806803023566 12.4046242774566  C 94.806803023566 13.5809248554913  95.553866533274 14.2225433526012  96.7278234771009 14.2225433526012  C 98.1152271379872 14.2225433526012  99.1824607232844 13.1531791907514  99.1824607232844 11.6560693641619  Z M 92.9925059285608 10.5867052023121  L 92.8857825700311 10.4797687861272  C 92.8857825700311 10.3728323699422  92.7790592115014 10.3728323699422  92.6723358529717 10.3728323699422  L 89.5773584556099 10.3728323699422  C 89.4706350970802 10.3728323699422  89.3639117385505 10.4797687861272  89.2571883800208 10.5867052023121  C 89.2571883800208 10.5867052023121  88.0832314361939 16.5751445086705  87.9765080776642 16.8959537572254  C 87.2294445679561 15.5057803468208  85.6285941900104 14.650289017341  83.8142970950052 14.650289017341  C 80.0789795464651 14.650289017341  77.3041722246925 17.6445086705202  77.3041722246925 21.8150289017341  C 77.3041722246925 25.2369942196532  79.3319160367571 27.5895953757225  82.4268934341189 27.5895953757225  C 83.9210204535349 27.5895953757225  85.2017007558915 26.9479768786127  86.1622109826589 25.878612716763  C 86.0554876241292 26.1994219653179  86.0554876241292 26.5202312138728  85.9487642655995 26.8410404624277  C 85.9487642655995 26.9479768786127  85.9487642655995 27.0549132947977  86.0554876241292 27.0549132947977  C 86.0554876241292 27.1618497109827  86.1622109826589 27.1618497109827  86.2689343411887 27.1618497109827  L 89.3639117385505 27.1618497109827  C 89.4706350970802 27.1618497109827  89.5773584556099 27.0549132947977  89.6840818141396 26.9479768786127  L 92.9925059285608 10.5867052023121  Z M 87.0159978508967 19.6763005780347  C 87.0159978508967 20.3179190751445  87.0159978508967 20.7456647398844  86.909274492367 21.1734104046243  C 86.8025511338373 21.6011560693642  86.6958277753075 22.028901734104  86.4823810582481 22.349710982659  C 86.2689343411887 22.6705202312139  86.0554876241292 23.0982658959538  85.7353175485401 23.3121387283237  C 85.4151474729509 23.6329479768786  85.0949773973618 23.8468208092486  84.7748073217726 23.9537572254335  C 84.1344671705943 24.2745664739884  83.2806803023566 24.2745664739884  82.6403401511783 23.9537572254335  C 82.3201700755891 23.8468208092486  82.1067233585297 23.6329479768786  81.8932766414703 23.4190751445087  C 81.6798299244108 23.2052023121387  81.5731065658811 22.8843930635838  81.4663832073514 22.5635838150289  C 81.3596598488217 22.242774566474  81.3596598488217 21.9219653179191  81.3596598488217 21.4942196531792  C 81.3596598488217 21.0664739884393  81.4663832073514 20.5317919075145  81.6798299244108 20.1040462427746  C 81.8932766414703 19.6763005780347  82.1067233585297 19.2485549132948  82.4268934341189 18.9277456647399  C 82.747063509708 18.606936416185  83.0672335852971 18.393063583815  83.494127019416 18.1791907514451  C 83.9210204535349 17.9653179190751  84.3479138876538 17.8583815028902  84.7748073217726 17.8583815028902  C 85.2017007558915 17.8583815028902  85.5218708314807 17.9653179190751  85.8420409070698 18.0722543352601  C 86.1622109826589 18.1791907514451  86.3756576997184 18.393063583815  86.5891044167778 18.7138728323699  C 86.8025511338373 18.9277456647399  86.909274492367 19.2485549132948  87.0159978508967 19.6763005780347  Z M 98.0085037794576 16.1473988439306  C 97.9017804209278 16.1473988439306  97.7950570623981 16.0404624277457  97.7950570623981 16.0404624277457  L 94.5933563065066 16.0404624277457  C 94.4866329479769 16.0404624277457  94.3799095894472 16.1473988439306  94.2731862309175 16.2543352601156  L 92.1387190603231 26.9479768786127  C 92.1387190603231 27.0549132947977  92.1387190603231 27.0549132947977  92.2454424188528 27.1618497109827  C 92.3521657773825 27.2687861271676  92.3521657773825 27.2687861271676  92.4588891359123 27.2687861271676  L 95.6605898918038 27.2687861271676  C 95.7673132503335 27.2687861271676  95.8740366088632 27.1618497109827  95.9807599673929 27.0549132947977  L 98.1152271379873 16.3612716763006  C 98.1152271379873 16.2543352601156  98.1152271379873 16.2543352601156  98.0085037794576 16.1473988439306  Z M 50.3031625166741 27.1618497109827  C 50.1964391581444 27.2687861271676  51.0502260263821 27.2687861271676  51.2636727434415 26.3063583815029  C 51.5838428190307 24.8092485549133  52.224182970209 21.6011560693642  52.224182970209 21.6011560693642  L 55.9595005187491 21.6011560693642  C 60.2284348599378 21.6011560693642  63.0032421817104 19.2485549132948  63.0032421817104 15.6127167630058  C 63.0032421817104 12.4046242774566  60.7620516525863 10.3728323699422  57.0267341040462 10.3728323699422  L 50.6233325922632 10.3728323699422  C 50.5166092337335 10.3728323699422  50.4098858752038 10.4797687861272  50.3031625166741 10.5867052023121  L 47.1014617607826 26.8410404624277  C 47.1014617607826 26.9479768786127  47.1014617607826 27.0549132947977  47.2081851193123 27.0549132947977  C 47.2081851193123 27.1618497109827  47.314908477842 27.1618497109827  47.4216318363717 27.1618497109827  L 50.3031625166741 27.1618497109827  Z M 58.9477545575812 15.6127167630058  C 58.8410311990514 17.2167630057803  57.880520972284 18.0722543352601  56.0662238772788 18.0722543352601  L 52.8645231213873 18.0722543352601  C 52.8645231213873 17.9653179190751  53.718309989625 14.0086705202312  53.718309989625 13.7947976878613  L 56.7065640284571 13.7947976878613  C 58.0939676893434 13.7947976878613  58.9477545575812 14.4364161849711  58.9477545575812 15.6127167630058  Z M 127.677597450719 20.5317919075145  C 127.570874092189 17.0028901734104  125.222960204535 14.757225433526  121.487642655995 14.757225433526  C 117.325431673336 14.757225433526  114.230454275975 17.7514450867052  114.230454275975 21.9219653179191  C 114.230454275975 25.4508670520231  116.685091522158 27.6965317919075  120.420409070698 27.6965317919075  C 124.582620053357 27.6965317919075  127.677597450719 24.7023121387283  127.677597450719 20.5317919075145  Z M 123.728833185119 20.8526011560694  C 123.728833185119 22.6705202312139  122.448152882763 24.0606936416185  120.633855787758 24.0606936416185  C 119.033005409812 24.0606936416185  118.072495183044 23.2052023121387  118.072495183044 21.7080924855491  C 118.072495183044 19.7832369942196  119.353175485401 18.5  121.167472580406 18.5  C 122.768322958352 18.5  123.728833185119 19.3554913294798  123.728833185119 20.8526011560694  Z M 114.764071068623 10.5867052023121  C 114.764071068623 10.5867052023121  114.657347710093 10.5867052023121  114.657347710093 10.4797687861272  C 114.657347710093 10.3728323699422  114.550624351564 10.3728323699422  114.443900993034 10.3728323699422  L 111.348923595672 10.3728323699422  C 111.242200237142 10.3728323699422  111.135476878613 10.4797687861272  111.028753520083 10.5867052023121  C 111.028753520083 10.5867052023121  109.854796576256 16.5751445086705  109.748073217726 16.8959537572254  C 109.001009708018 15.5057803468208  107.400159330073 14.650289017341  105.585862235067 14.650289017341  C 101.850544686527 14.650289017341  99.0757373647547 17.6445086705202  99.0757373647547 21.8150289017341  C 99.0757373647547 25.2369942196532  101.103481176819 27.5895953757225  104.198458574181 27.5895953757225  C 105.692585593597 27.5895953757225  106.973265895954 26.9479768786127  107.933776122721 25.878612716763  C 107.827052764192 26.1994219653179  107.827052764192 26.5202312138728  107.720329405662 26.8410404624277  C 107.720329405662 26.9479768786127  107.720329405662 27.0549132947977  107.827052764191 27.0549132947977  C 107.827052764191 27.1618497109827  107.933776122721 27.1618497109827  108.040499481251 27.1618497109827  L 111.135476878613 27.1618497109827  C 111.242200237142 27.1618497109827  111.348923595672 27.0549132947977  111.455646954202 26.9479768786127  L 114.764071068623 10.5867052023121  Z M 108.894286349489 19.6763005780347  C 108.787562990959 20.3179190751445  108.787562990959 20.7456647398844  108.787562990959 21.1734104046243  C 108.680839632429 21.6011560693642  108.5741162739 22.028901734104  108.36066955684 22.349710982659  C 108.147222839781 22.6705202312139  107.933776122721 23.0982658959538  107.613606047132 23.3121387283237  C 107.293435971543 23.6329479768786  106.973265895954 23.8468208092486  106.653095820365 23.9537572254335  C 106.012755669186 24.2745664739884  105.158968800949 24.2745664739884  104.51862864977 23.9537572254335  C 104.198458574181 23.8468208092486  103.985011857122 23.6329479768786  103.771565140062 23.4190751445087  C 103.558118423003 23.2052023121387  103.451395064473 22.8843930635838  103.344671705943 22.5635838150289  C 103.237948347414 22.242774566474  103.237948347414 21.9219653179191  103.237948347414 21.4942196531792  C 103.237948347414 21.0664739884393  103.344671705943 20.5317919075144  103.558118423003 20.1040462427746  C 103.771565140062 19.6763005780347  103.985011857122 19.2485549132948  104.305181932711 18.9277456647399  C 104.6253520083 18.606936416185  104.945522083889 18.393063583815  105.372415518008 18.1791907514451  C 105.799308952127 17.9653179190751  106.226202386246 17.8583815028902  106.653095820365 17.8583815028902  C 107.079989254483 17.8583815028902  107.400159330073 17.9653179190751  107.720329405662 18.0722543352601  C 108.040499481251 18.1791907514451  108.25394619831 18.393063583815  108.46739291537 18.7138728323699  C 108.680839632429 18.9277456647399  108.787562990959 19.2485549132948  108.894286349489 19.6763005780347  Z M 137.816316511042 15.9335260115607  C 138.029763228101 15.9335260115607  137.923039869572 15.7196531791907  137.816316511042 15.7196531791907  C 136.215466133096 14.971098265896  134.507892396621 14.650289017341  133.013765377205 14.757225433526  C 130.345681413962 14.9710982658959  128.851554394546 16.5751445086705  129.065001111605 18.9277456647399  C 129.171724470135 20.3179190751445  130.025511338373 21.3872832369942  131.519638357789 22.242774566474  L 133.227212094264 23.0982658959538  C 133.867552245442 23.4190751445087  133.974275603972 23.6329479768786  133.974275603972 23.8468208092486  C 133.974275603972 24.3815028901734  133.440658811324 24.4884393063584  133.120488735734 24.4884393063584  C 132.053255150437 24.5953757225434  130.772574848081 24.1676300578035  129.385171187194 23.3121387283237  L 129.171724470135 23.3121387283237  C 129.065001111605 23.3121387283237  129.065001111605 23.4190751445087  128.958277753075 23.4190751445087  L 127.570874092189 25.771676300578  C 127.464150733659 25.878612716763  127.570874092189 26.0924855491329  127.677597450719 26.0924855491329  C 129.385171187194 27.2687861271676  131.306191640729 27.8034682080925  133.227212094264 27.5895953757225  C 136.215466133096 27.3757225433526  137.709593152512 25.771676300578  137.496146435453 23.3121387283237  C 137.389423076923 21.8150289017341  136.642359567215 20.8526011560694  135.041509189269 19.9971098265896  L 133.547382169853 19.2485549132948  C 132.693595301616 18.7138728323699  132.586871943086 18.606936416185  132.586871943086 18.393063583815  C 132.586871943086 18.28612716763  132.586871943086 17.8583815028902  133.440658811324 17.7514450867052  C 134.294445679561 17.6445086705202  135.361679264858 17.9653179190751  136.428912850156 18.5  L 136.642359567215 18.5  C 136.749082925745 18.5  136.749082925745 18.393063583815  136.749082925745 18.393063583815  L 137.816316511042 15.9335260115607  Z M 154.678607158737 11.121387283237  C 154.571883800208 11.121387283237  154.571883800208 11.014450867052  154.571883800208 10.907514450867  C 154.571883800208 10.8005780346821  154.465160441678 10.6936416184971  154.358437083148 10.6936416184971  L 149.98277938343 10.6936416184971  C 149.8760560249 10.6936416184971  149.76933266637 10.6936416184971  149.76933266637 10.8005780346821  C 149.76933266637 10.8005780346821  145.393674966652 17.0028901734104  145.073504891063 17.5375722543353  C 144.966781532533 17.0028901734104  142.832314361939 10.9075144508671  142.832314361939 10.9075144508671  C 142.832314361939 10.8005780346821  142.725591003409 10.6936416184971  142.51214428635 10.6936416184971  L 138.67010337928 10.6936416184971  C 138.56338002075 10.6936416184971  138.45665666222 10.6936416184971  138.45665666222 10.8005780346821  C 138.349933303691 10.9075144508671  138.349933303691 11.014450867052  138.45665666222 11.121387283237  L 142.51214428635 21.3872832369942  L 141.338187342523 27.3757225433526  C 141.338187342523 27.4826589595376  141.338187342523 27.5895953757225  141.444910701052 27.5895953757225  C 141.551634059582 27.6965317919075  141.551634059582 27.6965317919075  141.658357418112 27.6965317919075  L 144.753334815474 27.6965317919075  C 145.180228249592 27.6965317919075  145.500398325182 27.3757225433526  145.607121683711 27.0549132947977  L 146.674355269009 21.4942196531792  L 154.678607158737 11.121387283237  Z M 163.963539350823 15.7196531791907  C 163.856815992293 15.7196531791907  163.856815992293 15.6127167630058  163.856815992293 15.5057803468208  C 163.856815992293 15.3988439306358  163.750092633763 15.3988439306358  163.643369275233 15.3988439306358  L 160.655115236401 15.3988439306358  C 160.548391877872 15.3988439306358  160.441668519342 15.5057803468208  160.441668519342 15.6127167630058  C 160.441668519342 15.6127167630058  160.334945160812 16.1473988439306  160.228221802283 16.5751445086705  C 159.587881651104 15.7196531791907  158.520648065807 15.2919075144509  157.45341448051 15.1849710982659  C 156.492904253742 15.0780346820809  155.532394026975 15.2919075144509  154.678607158737 15.6127167630058  C 151.690353119905 16.7890173410405  149.76933266637 19.6763005780347  149.76933266637 22.8843930635838  C 149.76933266637 25.6647398843931  151.583629761375 27.5895953757225  154.358437083148 27.6965317919075  C 155.852564102564 27.8034682080925  157.133244404921 27.2687861271676  158.307201348748 26.3063583815029  C 158.200477990218 26.6271676300578  158.200477990218 26.9479768786127  158.093754631688 27.2687861271676  C 158.093754631688 27.3757225433526  158.093754631688 27.3757225433526  158.200477990218 27.4826589595376  C 158.200477990218 27.5895953757225  158.307201348748 27.5895953757225  158.413924707277 27.5895953757225  L 161.402178746109 27.5895953757225  C 161.508902104639 27.5895953757225  161.615625463169 27.4826589595376  161.615625463169 27.3757225433526  L 163.963539350823 15.7196531791907  Z M 159.054264858456 20.3179190751445  C 159.267711575515 20.6387283236994  159.267711575515 21.0664739884393  159.160988216985 21.4942196531792  C 159.054264858456 21.9219653179191  158.947541499926 22.349710982659  158.734094782866 22.6705202312139  C 158.520648065807 22.9913294797688  158.307201348748 23.3121387283237  157.987031273158 23.6329479768786  L 157.026521046391 24.2745664739884  C 156.386180895213 24.5953757225434  155.532394026975 24.5953757225434  154.998777234326 24.2745664739884  C 154.678607158737 24.1676300578035  154.465160441678 23.9537572254335  154.251713724618 23.7398843930636  C 154.038267007559 23.5260115606936  153.931543649029 23.3121387283237  153.8248202905 22.9913294797688  C 153.71809693197 22.6705202312139  153.71809693197 22.349710982659  153.71809693197 21.9219653179191  C 153.71809693197 21.4942196531792  153.8248202905 21.0664739884393  154.038267007559 20.6387283236994  C 154.251713724618 20.2109826589595  154.465160441678 19.8901734104046  154.785330517267 19.5693641618497  C 155.105500592856 19.2485549132948  155.425670668445 19.0346820809249  155.745840744034 18.8208092485549  C 156.172734178153 18.606936416185  156.492904253742 18.606936416185  156.919797687861 18.606936416185  C 157.23996776345 18.606936416185  157.666861197569 18.7138728323699  157.880307914629 18.8208092485549  C 158.200477990218 18.9277456647399  158.413924707277 19.1416184971098  158.627371424337 19.3554913294798  C 158.840818141396 19.5693641618497  158.947541499926 19.8901734104046  159.054264858456 20.3179190751445  Z M 76.0234919223359 19.7832369942196  C 75.9167685638062 16.6820809248555  73.7823013932118 14.757225433526  70.3671539202608 14.757225433526  C 66.2049429376019 14.757225433526  63.2166888987698 17.7514450867052  63.2166888987698 21.9219653179191  C 63.2166888987698 25.4508670520231  65.6713261449533 27.6965317919075  69.5133670520231 27.6965317919075  C 71.2209407884986 27.6965317919075  72.7150678079146 27.2687861271676  74.2091948273307 26.1994219653179  C 74.3159181858604 26.0924855491329  74.3159181858604 25.878612716763  74.2091948273307 25.771676300578  L 72.2881743737958 23.8468208092486  C 72.1814510152661 23.7398843930636  72.0747276567363 23.7398843930636  71.9680042982066 23.8468208092486  C 71.1142174299689 24.2745664739884  70.3671539202609 24.4884393063584  69.5133670520231 24.4884393063584  C 67.699069957018 24.4884393063584  66.7385597302505 23.6329479768786  66.7385597302505 22.242774566474  L 75.3831517711576 22.242774566474  C 75.4898751296873 22.242774566474  75.596598488217 22.135838150289  75.7033218467467 22.028901734104  C 75.9167685638062 21.1734104046243  76.0234919223359 20.5317919075144  76.0234919223359 19.7832369942196  Z M 72.6083444493849 19.6763005780347  C 72.3948977323255 19.5693641618497  67.3788998814288 19.5693641618497  67.1654531643694 19.5693641618497  C 67.6990699570179 18.1791907514451  68.7663035423151 17.5375722543353  70.2604305617311 17.5375722543353  C 71.8612809396769 17.5375722543353  72.6083444493849 18.2861271676301  72.6083444493849 19.6763005780347  Z M 39.2039332295835 13.5809248554913  C 39.2039332295835 6.09537572254335  33.1207017933897 0  25.5433433377798 0  L 0.676800800355719 0  C 0.249907366236851 0  0.0364606491774272 0.213872832369942  0.0364606491774272 0.641618497109826  L 0.0364606491774272 4.17052023121387  C 0.0364606491774272 8.1271676300578  2.81126797095006 10.2658959537572  7.82726582184675 11  L 25.6500666963095 11  C 27.5710871498444 10.2658959537572  29.0652141692604 11.7630057803468  29.0652141692604 13.6878612716763  C 29.0652141692604 15.6127167630058  27.5710871498444 17.1098265895954  25.6500666963095 17.1098265895954  L 5.58607529272269 17.1098265895954  C 5.26590521713354 17.1098265895954  5.05245850007411 17.3236994219653  4.94573514154439 17.5375722543353  L 0.356630724766566 36.2514450867052  C 0.356630724766566 36.4653179190751  0.356630724766566 36.6791907514451  0.463354083296283 36.78612716763  C 0.570077441826 36.893063583815  0.783524158885434 37  0.996970875944868 37  L 7.29364902919816 37  C 9.64156291685194 37  10.8155198606788 35.0751445086705  11.0289665777383 34.0057803468208  L 12.8432636727434 27  L 25.5433433377798 27  C 33.0139784348599 27.2687861271676  39.2039332295835 21.1734104046243  39.2039332295835 13.5809248554913  Z " fill-rule="nonzero" fill="#2699fb" stroke="none" transform="matrix(1 0 0 1 1041 169 )" />
  </g>
</svg>