<?xml version="1.0" encoding="utf-8"?>
<svg version="1.1" xmlns:xlink="http://www.w3.org/1999/xlink" width="30px" height="30px" xmlns="http://www.w3.org/2000/svg">
  <g transform="matrix(1 0 0 1 -1110 -190 )">
    <path d="M 18.53515625 18.53515625  C 19.51171875 17.55859375  20 16.3802083333333  20 15  C 20 13.6197916666667  19.51171875 12.44140625  18.53515625 11.46484375  C 17.55859375 10.48828125  16.3802083333333 10  15 10  C 13.6197916666667 10  12.44140625 10.48828125  11.46484375 11.46484375  C 10.48828125 12.44140625  10 13.6197916666667  10 15  C 10 16.3802083333333  10.48828125 17.55859375  11.46484375 18.53515625  C 12.44140625 19.51171875  13.6197916666667 20  15 20  C 16.3802083333333 20  17.55859375 19.51171875  18.53515625 18.53515625  Z M 20.44921875 9.55078125  C 21.9466145833333 11.0481770833333  22.6953125 12.8645833333333  22.6953125 15  C 22.6953125 17.1354166666667  21.9466145833333 18.9518229166667  20.44921875 20.44921875  C 18.9518229166667 21.9466145833333  17.1354166666667 22.6953125  15 22.6953125  C 12.8645833333333 22.6953125  11.0481770833333 21.9466145833333  9.55078125 20.44921875  C 8.05338541666667 18.9518229166667  7.3046875 17.1354166666667  7.3046875 15  C 7.3046875 12.8645833333333  8.05338541666667 11.0481770833333  9.55078125 9.55078125  C 11.0481770833333 8.05338541666666  12.8645833333333 7.3046875  15 7.3046875  C 17.1354166666667 7.3046875  18.9518229166667 8.05338541666666  20.44921875 9.55078125  Z M 24.27734375 5.72265625  C 24.62890625 6.07421875  24.8046875 6.49739583333333  24.8046875 6.9921875  C 24.8046875 7.48697916666667  24.62890625 7.91015625  24.27734375 8.26171875  C 23.92578125 8.61328125  23.5026041666667 8.7890625  23.0078125 8.7890625  C 22.5130208333333 8.7890625  22.08984375 8.61328125  21.73828125 8.26171875  C 21.38671875 7.91015625  21.2109375 7.48697916666667  21.2109375 6.9921875  C 21.2109375 6.49739583333333  21.38671875 6.07421875  21.73828125 5.72265625  C 22.08984375 5.37109375  22.5130208333333 5.1953125  23.0078125 5.1953125  C 23.5026041666667 5.1953125  23.92578125 5.37109375  24.27734375 5.72265625  Z M 16.494140625 2.685546875  C 15.5891927083333 2.69205729166666  15.0911458333333 2.6953125  15 2.6953125  C 14.9088541666667 2.6953125  14.4108072916667 2.69205729166666  13.505859375 2.685546875  C 12.6009114583333 2.67903645833333  11.9140625 2.67903645833333  11.4453125 2.685546875  C 10.9765625 2.69205729166666  10.3483072916667 2.71158854166667  9.560546875 2.744140625  C 8.77278645833334 2.77669270833333  8.10221354166667 2.841796875  7.548828125 2.939453125  C 6.99544270833333 3.037109375  6.52994791666667 3.15755208333333  6.15234375 3.30078125  C 5.50130208333333 3.56119791666667  4.92838541666667 3.93880208333333  4.43359375 4.43359375  C 3.93880208333333 4.92838541666667  3.56119791666667 5.50130208333333  3.30078125 6.15234375  C 3.15755208333333 6.52994791666666  3.037109375 6.99544270833333  2.939453125 7.548828125  C 2.841796875 8.10221354166667  2.77669270833333 8.77278645833333  2.744140625 9.560546875  C 2.71158854166667 10.3483072916667  2.69205729166667 10.9765625  2.685546875 11.4453125  C 2.67903645833333 11.9140625  2.67903645833333 12.6009114583333  2.685546875 13.505859375  C 2.69205729166667 14.4108072916667  2.6953125 14.9088541666667  2.6953125 15  C 2.6953125 15.0911458333333  2.69205729166667 15.5891927083333  2.685546875 16.494140625  C 2.67903645833333 17.3990885416667  2.67903645833333 18.0859375  2.685546875 18.5546875  C 2.69205729166667 19.0234375  2.71158854166667 19.6516927083333  2.744140625 20.439453125  C 2.77669270833333 21.2272135416667  2.841796875 21.8977864583333  2.939453125 22.451171875  C 3.037109375 23.0045572916667  3.15755208333333 23.4700520833333  3.30078125 23.84765625  C 3.56119791666667 24.4986979166667  3.93880208333333 25.0716145833333  4.43359375 25.56640625  C 4.92838541666667 26.0611979166667  5.50130208333333 26.4388020833333  6.15234375 26.69921875  C 6.52994791666667 26.8424479166667  6.99544270833333 26.962890625  7.548828125 27.060546875  C 8.10221354166667 27.158203125  8.77278645833334 27.2233072916667  9.560546875 27.255859375  C 10.3483072916667 27.2884114583333  10.9765625 27.3079427083333  11.4453125 27.314453125  C 11.9140625 27.3209635416667  12.6009114583333 27.3209635416667  13.505859375 27.314453125  C 14.4108072916667 27.3079427083333  14.9088541666667 27.3046875  15 27.3046875  C 15.0911458333333 27.3046875  15.5891927083333 27.3079427083333  16.494140625 27.314453125  C 17.3990885416667 27.3209635416667  18.0859375 27.3209635416667  18.5546875 27.314453125  C 19.0234375 27.3079427083333  19.6516927083333 27.2884114583333  20.439453125 27.255859375  C 21.2272135416667 27.2233072916667  21.8977864583333 27.158203125  22.451171875 27.060546875  C 23.0045572916667 26.962890625  23.4700520833333 26.8424479166667  23.84765625 26.69921875  C 24.4986979166667 26.4388020833333  25.0716145833333 26.0611979166667  25.56640625 25.56640625  C 26.0611979166667 25.0716145833333  26.4388020833333 24.4986979166667  26.69921875 23.84765625  C 26.8424479166667 23.4700520833333  26.962890625 23.0045572916667  27.060546875 22.451171875  C 27.158203125 21.8977864583333  27.2233072916667 21.2272135416667  27.255859375 20.439453125  C 27.2884114583333 19.6516927083333  27.3079427083333 19.0234375  27.314453125 18.5546875  C 27.3209635416667 18.0859375  27.3209635416667 17.3990885416667  27.314453125 16.494140625  C 27.3079427083333 15.5891927083333  27.3046875 15.0911458333333  27.3046875 15  C 27.3046875 14.9088541666667  27.3079427083333 14.4108072916667  27.314453125 13.505859375  C 27.3209635416667 12.6009114583333  27.3209635416667 11.9140625  27.314453125 11.4453125  C 27.3079427083333 10.9765625  27.2884114583333 10.3483072916667  27.255859375 9.560546875  C 27.2233072916667 8.77278645833333  27.158203125 8.10221354166667  27.060546875 7.548828125  C 26.962890625 6.99544270833333  26.8424479166667 6.52994791666666  26.69921875 6.15234375  C 26.4388020833333 5.50130208333333  26.0611979166667 4.92838541666667  25.56640625 4.43359375  C 25.0716145833333 3.93880208333333  24.4986979166667 3.56119791666667  23.84765625 3.30078125  C 23.4700520833333 3.15755208333333  23.0045572916667 3.037109375  22.451171875 2.939453125  C 21.8977864583333 2.841796875  21.2272135416667 2.77669270833333  20.439453125 2.744140625  C 19.6516927083333 2.71158854166667  19.0234375 2.69205729166666  18.5546875 2.685546875  C 18.0859375 2.67903645833333  17.3990885416667 2.67903645833333  16.494140625 2.685546875  Z M 29.90234375 8.80859375  C 29.9674479166667 9.95442708333333  30 12.0182291666667  30 15  C 30 17.9817708333333  29.9674479166667 20.0455729166667  29.90234375 21.19140625  C 29.7721354166667 23.8997395833333  28.96484375 25.99609375  27.48046875 27.48046875  C 25.99609375 28.96484375  23.8997395833333 29.7721354166667  21.19140625 29.90234375  C 20.0455729166667 29.9674479166667  17.9817708333333 30  15 30  C 12.0182291666667 30  9.95442708333333 29.9674479166667  8.80859375 29.90234375  C 6.10026041666667 29.7721354166667  4.00390625 28.96484375  2.51953125 27.48046875  C 1.03515625 25.99609375  0.227864583333333 23.8997395833333  0.09765625 21.19140625  C 0.0325520833333333 20.0455729166667  0 17.9817708333333  0 15  C 0 12.0182291666667  0.0325520833333333 9.95442708333333  0.09765625 8.80859375  C 0.227864583333333 6.10026041666667  1.03515625 4.00390625  2.51953125 2.51953125  C 4.00390625 1.03515625  6.10026041666667 0.227864583333331  8.80859375 0.0976562500000011  C 9.95442708333333 0.0325520833333293  12.0182291666667 0  15 0  C 17.9817708333333 0  20.0455729166667 0.0325520833333293  21.19140625 0.0976562500000011  C 23.8997395833333 0.227864583333331  25.99609375 1.03515625  27.48046875 2.51953125  C 28.96484375 4.00390625  29.7721354166667 6.10026041666667  29.90234375 8.80859375  Z " fill-rule="nonzero" fill="#ffffff" stroke="none" transform="matrix(1 0 0 1 1110 190 )" />
  </g>
</svg>