<?xml version="1.0" encoding="utf-8"?>
<svg version="1.1" xmlns:xlink="http://www.w3.org/1999/xlink" width="35px" height="25px" xmlns="http://www.w3.org/2000/svg">
  <g transform="matrix(1 0 0 1 -1063 -193 )">
    <path d="M 13.8907469342252 7.12301587301587  L 13.8907469342252 17.1031746031746  L 23.3333333333333 12.1428571428571  L 13.8907469342252 7.12301587301587  Z M 5.26755852842809 0.357142857142856  C 8.5321441843181 0.119047619047619  12.6096246748421 0  17.5 0  C 19.6850613154961 0  21.7953363062059 0.0297619047619047  23.8308249721293 0.089285714285714  C 25.8663136380528 0.148809523809523  27.3587885544407 0.21164021164021  28.3082497212932 0.277777777777777  L 29.7324414715719 0.357142857142856  C 29.7454477889261 0.357142857142856  29.8560014864363 0.367063492063491  30.0641025641026 0.386904761904761  C 30.2722036417689 0.406746031746033  30.4217762913415 0.426587301587303  30.5128205128205 0.446428571428573  C 30.6038647342995 0.466269841269842  30.7566889632107 0.496031746031747  30.9712931995541 0.535714285714287  C 31.1858974358974 0.575396825396826  31.371237458194 0.628306878306875  31.5273132664437 0.694444444444445  C 31.6833890746934 0.760582010582009  31.8654775176514 0.846560846560843  32.0735785953177 0.952380952380952  C 32.281679672984 1.05820105820106  32.4832775919732 1.18716931216931  32.6783723522854 1.33928571428572  C 32.8734671125976 1.49140211640211  33.0620587142326 1.66666666666667  33.2441471571906 1.86507936507936  C 33.3221850613155 1.94444444444444  33.4229840208101 2.06679894179894  33.5465440356745 2.23214285714286  C 33.6701040505388 2.39748677248677  33.8586956521739 2.78439153439153  34.1123188405797 3.39285714285714  C 34.3659420289855 4.00132275132275  34.5382757339279 4.66931216931217  34.6293199554069 5.3968253968254  C 34.7333704942401 6.24338624338624  34.8146599777035 7.14616402116402  34.8731884057971 8.10515873015873  C 34.9317168338908 9.06415343915344  34.9674842066146 9.81481481481481  34.9804905239688 10.3571428571429  L 34.9804905239688 11.1507936507937  L 34.9804905239688 13.8492063492063  C 34.9934968413229 15.7671957671958  34.8764399851356 17.6851851851852  34.6293199554069 19.6031746031746  C 34.5382757339279 20.3306878306878  34.3756967670011 20.9887566137566  34.1415830546265 21.577380952381  C 33.907469342252 22.1660052910053  33.6993682645857 22.5727513227513  33.5172798216276 22.797619047619  L 33.2441471571906 23.1349206349206  C 33.0620587142326 23.3333333333333  32.8734671125976 23.5085978835979  32.6783723522854 23.6607142857143  C 32.4832775919732 23.8128306878307  32.281679672984 23.9384920634921  32.0735785953177 24.0376984126984  C 31.8654775176514 24.1369047619048  31.6833890746934 24.2195767195767  31.5273132664437 24.2857142857143  C 31.371237458194 24.3518518518519  31.1858974358974 24.4047619047619  30.9712931995541 24.4444444444444  C 30.7566889632107 24.484126984127  30.600613154961 24.5138888888889  30.5030657748049 24.5337301587302  C 30.4055183946488 24.5535714285714  30.2559457450762 24.5734126984127  30.054347826087 24.593253968254  C 29.8527499070977 24.6130952380952  29.7454477889261 24.6230158730159  29.7324414715719 24.6230158730159  C 26.4678558156819 24.8743386243386  22.3903753251579 25  17.5 25  C 14.8076923076923 24.973544973545  12.469806763285 24.9305555555556  10.4863433667781 24.8710317460317  C 8.50287997027128 24.8115079365079  7.19899665551839 24.7619047619048  6.57469342251951 24.7222222222222  L 5.61872909698997 24.6428571428571  L 4.91638795986622 24.5634920634921  C 4.44816053511706 24.4973544973545  4.09373838721665 24.4312169312169  3.85312151616499 24.3650793650794  C 3.61250464511334 24.2989417989418  3.28084355258268 24.1600529100529  2.85813823857302 23.9484126984127  C 2.43543292456336 23.7367724867725  2.06800445930881 23.4656084656085  1.75585284280936 23.1349206349206  C 1.6778149386845 23.0555555555556  1.57701597918989 22.9332010582011  1.45345596432553 22.7678571428571  C 1.32989594946117 22.6025132275132  1.14130434782609 22.2156084656085  0.88768115942029 21.6071428571429  C 0.634057971014493 20.9986772486772  0.461724266072092 20.3306878306878  0.370680044593088 19.6031746031746  C 0.266629505759941 18.7566137566138  0.185340022296544 17.853835978836  0.126811594202899 16.8948412698413  C 0.0682831661092531 15.9358465608466  0.0325157933853586 15.1851851851852  0.0195094760312152 14.6428571428571  L 0.0195094760312152 13.8492063492063  L 0.0195094760312152 11.1507936507937  C 0.00650315867707172 9.23280423280423  0.123560014864363 7.31481481481481  0.370680044593088 5.3968253968254  C 0.461724266072092 4.66931216931217  0.624303232998885 4.01124338624338  0.858416945373467 3.42261904761905  C 1.09253065774805 2.83399470899471  1.30063173541434 2.42724867724868  1.48272017837235 2.20238095238095  L 1.75585284280936 1.86507936507936  C 1.93794128576737 1.66666666666667  2.12653288740245 1.49140211640211  2.3216276477146 1.33928571428572  C 2.51672240802676 1.18716931216931  2.71832032701598 1.05820105820106  2.92642140468227 0.952380952380952  C 3.13452248234857 0.846560846560843  3.31661092530658 0.760582010582009  3.4726867335563 0.694444444444445  C 3.62876254180602 0.628306878306875  3.81410256410256 0.575396825396826  4.02870680044593 0.535714285714287  C 4.2433110367893 0.496031746031747  4.39613526570048 0.466269841269842  4.48717948717949 0.446428571428573  C 4.57822370865849 0.426587301587303  4.72779635823114 0.406746031746033  4.93589743589744 0.386904761904761  C 5.14399851356373 0.367063492063491  5.25455221107395 0.357142857142856  5.26755852842809 0.357142857142856  Z " fill-rule="nonzero" fill="#ffffff" stroke="none" transform="matrix(1 0 0 1 1063 193 )" />
  </g>
</svg>