<?xml version="1.0" encoding="utf-8"?>
<svg version="1.1" xmlns:xlink="http://www.w3.org/1999/xlink" width="14px" height="14px" viewBox="439 87  14 14" xmlns="http://www.w3.org/2000/svg">
  <path d="M 439.5 89  A 1.5 1.5 0 0 1 441 87.5 L 451 87.5  A 1.5 1.5 0 0 1 452.5 89 L 452.5 99  A 1.5 1.5 0 0 1 451 100.5 L 441 100.5  A 1.5 1.5 0 0 1 439.5 99 L 439.5 89  Z " fill-rule="nonzero" fill="#ffffff" stroke="none" />
  <path d="M 439.5 89  A 1.5 1.5 0 0 1 441 87.5 L 451 87.5  A 1.5 1.5 0 0 1 452.5 89 L 452.5 99  A 1.5 1.5 0 0 1 451 100.5 L 441 100.5  A 1.5 1.5 0 0 1 439.5 99 L 439.5 89  Z " stroke-width="1" stroke="#2699fb" fill="none" />
  <path d="M 442.5 94.5  L 445.5 97.5  " stroke-width="3" stroke="#2699fb" fill="none" />
  <path d="M 445.5 97.5  L 450.5 90.5  " stroke-width="3" stroke="#2699fb" fill="none" />
</svg>