<?xml version="1.0" encoding="utf-8"?>
<svg version="1.1" xmlns:xlink="http://www.w3.org/1999/xlink" width="14px" height="14px" viewBox="36 240  14 14" xmlns="http://www.w3.org/2000/svg">
  <path d="M 36.5 242  A 1.5 1.5 0 0 1 38 240.5 L 48 240.5  A 1.5 1.5 0 0 1 49.5 242 L 49.5 252  A 1.5 1.5 0 0 1 48 253.5 L 38 253.5  A 1.5 1.5 0 0 1 36.5 252 L 36.5 242  Z " fill-rule="nonzero" fill="#f0f0f0" stroke="none" />
  <path d="M 36.5 242  A 1.5 1.5 0 0 1 38 240.5 L 48 240.5  A 1.5 1.5 0 0 1 49.5 242 L 49.5 252  A 1.5 1.5 0 0 1 48 253.5 L 38 253.5  A 1.5 1.5 0 0 1 36.5 252 L 36.5 242  Z " stroke-width="1" stroke="#2699fb" fill="none" />
  <path d="M 39.5 247.5  L 42.5 250.5  " stroke-width="3" stroke="#2699fb" fill="none" />
  <path d="M 42.5 250.5  L 47.5 243.5  " stroke-width="3" stroke="#2699fb" fill="none" />
</svg>