<?xml version="1.0" encoding="utf-8"?>
<svg version="1.1" xmlns:xlink="http://www.w3.org/1999/xlink" width="19px" height="32px" xmlns="http://www.w3.org/2000/svg">
  <g transform="matrix(1 0 0 1 -17 -1607 )">
    <path d="M 18.6735395189003 1.92384769539078  C 18.8911798396335 2.1376085504342  19 2.38343353373413  19 2.66132264529058  C 19 2.93921175684703  18.8911798396335 3.18503674014696  18.6735395189003 3.39879759519038  L 5.84364261168385 16  L 18.6735395189003 28.6012024048096  C 18.8911798396335 28.814963259853  19 29.060788243153  19 29.3386773547094  C 19 29.6165664662659  18.8911798396335 29.8623914495658  18.6735395189003 30.0761523046092  L 17.0412371134021 31.6793587174349  C 16.823596792669 31.8931195724783  16.5733104238259 32  16.2903780068729 32  C 16.0074455899198 32  15.7571592210767 31.8931195724783  15.5395189003436 31.6793587174349  L 0.326460481099656 16.7374749498998  C 0.108820160366552 16.5237140948564  0 16.2778891115564  0 16  C 0 15.7221108884436  0.108820160366552 15.4762859051436  0.326460481099656 15.2625250501002  L 15.5395189003436 0.320641282565131  C 15.7571592210767 0.106880427521709  16.0074455899198 0  16.2903780068729 0  C 16.5733104238259 0  16.823596792669 0.106880427521709  17.0412371134021 0.320641282565131  L 18.6735395189003 1.92384769539078  Z " fill-rule="nonzero" fill="#2699fb" stroke="none" transform="matrix(1 0 0 1 17 1607 )" />
  </g>
</svg>