<?xml version="1.0" encoding="utf-8"?>
<svg version="1.1" xmlns:xlink="http://www.w3.org/1999/xlink" width="19px" height="32px" xmlns="http://www.w3.org/2000/svg">
  <g transform="matrix(1 0 0 1 -338 -1607 )">
    <path d="M 18.6735395189003 15.2625250501002  C 18.8911798396335 15.4762859051436  19 15.7221108884436  19 16  C 19 16.2778891115564  18.8911798396335 16.5237140948564  18.6735395189003 16.7374749498998  L 3.46048109965636 31.6793587174349  C 3.24284077892325 31.8931195724783  2.99255441008018 32  2.70962199312715 32  C 2.42668957617411 32  2.17640320733104 31.8931195724783  1.95876288659794 31.6793587174349  L 0.326460481099656 30.0761523046092  C 0.108820160366552 29.8623914495658  0 29.6165664662659  0 29.3386773547094  C 0 29.060788243153  0.108820160366552 28.814963259853  0.326460481099656 28.6012024048096  L 13.1563573883162 16  L 0.326460481099656 3.39879759519038  C 0.108820160366552 3.18503674014696  0 2.93921175684703  0 2.66132264529058  C 0 2.38343353373413  0.108820160366552 2.1376085504342  0.326460481099656 1.92384769539078  L 1.95876288659794 0.320641282565131  C 2.17640320733104 0.106880427521709  2.42668957617411 0  2.70962199312715 0  C 2.99255441008018 0  3.24284077892325 0.106880427521709  3.46048109965636 0.320641282565131  L 18.6735395189003 15.2625250501002  Z " fill-rule="nonzero" fill="#2699fb" stroke="none" transform="matrix(1 0 0 1 338 1607 )" />
  </g>
</svg>