<?xml version="1.0" encoding="utf-8"?>
<svg version="1.1" xmlns:xlink="http://www.w3.org/1999/xlink" width="34px" height="13px" xmlns="http://www.w3.org/2000/svg">
  <g transform="matrix(1 0 0 1 -1070 -3226 )">
    <path d="M 2.34131666032222 3.53299665474294  L 0.165441263065077 5.93903458220612  C 0.165441263065077 5.93903458220612  -0.113577241540095 6.21883768056949  0.0539008524606078 6.44254580002928  C 0.444459767670249 6.94605701785244  1.6717392405074 7.22586011621581  2.95495639674079 6.94605701785244  C 3.68013654376383 6.77810797921897  4.68433519539205 5.9951295611097  5.5769934364158 5.26757432574948  C 6.58119208804402 4.48426000956295  7.58539073967224 3.6451866125501  8.58958939130045 3.36538351418673  C 9.6497257263249 3.02982133499705  10.3189681899517 3.19743447555325  10.7654647885576 3.30928853528315  C 11.2675641143717 3.47723757391663  11.825601123582 3.81279975310631  12.773862091814 4.48426000956295  C 14.5032408904653 5.77108554357264  21.5326314518628 11.9250742171805  22.7599109247 12.9878557336531  C 23.7081718929319 12.5401035966563  28.0599226874462 10.6940077639971  33.973574186611 9.35142314916109  C 33.4714748607969 6.21850178249223  31.574617968145 3.30928853528315  28.6735624238648 0.95968148480082  C 24.6567678173519 2.63816417690378  19.6917122426071 3.53333255282021  14.8378621222787 1.18338960426061  C 14.8378621222787 1.18338960426061  12.2158250826037 -0.0473409508455032  9.59378804292867 0.00841812998081097  C 5.74447153041651 0.120272189710707  4.12629818618171 1.74265990291009  2.34131666032222 3.53299665474294  Z " fill-rule="nonzero" fill="#ffffff" stroke="none" transform="matrix(1 0 0 1 1070 3226 )" />
  </g>
</svg>