<?xml version="1.0" encoding="utf-8"?>
<svg version="1.1" xmlns:xlink="http://www.w3.org/1999/xlink" width="52px" height="24px" xmlns="http://www.w3.org/2000/svg">
  <g transform="matrix(1 0 0 1 -1053 -3225 )">
    <path d="M 40.5279958691652 13.6116739839807  C 37.9758172012207 11.4374051892812  32.0773730536376 6.36455761347068  30.432673525129 5.19374599957616  C 29.5251943856931 4.52466297608413  28.9013663243623 4.13439243811929  28.3344046856528 4.02293438568165  C 28.107620030169 3.96703800502974  27.7671025294426 3.85557995259209  27.313533218475 3.85557995259209  C 26.916489812628 3.85557995259209  26.4629205016604 3.91147633324401  26.0090106731921 4.07849605746738  C 24.9881392060143 4.41287021478031  23.9672677388365 5.19341129070999  22.9463962716587 5.97395236663966  L 22.8895298490374 6.02984874729157  C 21.9820507096015 6.75449344256934  21.018045665045 7.4791381378471  20.2804847584715 7.64649257093666  C 19.9403077752458 7.70238895158857  19.6566566971407 7.7579506233743  19.3164797139151 7.7579506233743  C 18.522392902221 7.7579506233743  17.7851725131483 7.53503451849901  17.5015214350432 7.20032565231991  C 17.4446550124219 7.144429271668  17.5015214350432 7.03297121923035  17.6149137627851 6.92151316679271  L 19.8834413526245 4.52432826721795  C 21.641533208875 2.79622639113522  23.2862327373836 1.17958256749014  27.1429339506111 1.06812451505249  L 27.3131927009743 1.06812451505249  C 29.6951126185556 1.06812451505249  32.0773730536376 2.12747807650937  32.360683614242 2.23893612894701  C 34.6292112040814 3.29828969040388  36.8977387939208 3.85557995259209  39.2231328063815 3.85557995259209  C 41.6619191465841 3.85557995259209  44.1572313919073 3.24239330975197  46.7662764824732 2.07158169585746  C 46.4826254043681 1.84866559098217  46.1424484211424 1.56985310545497  45.8587973430373 1.34693700057969  C 43.5334033305765 2.35039418138465  41.378268068479 2.79622639113522  39.2231328063815 2.79622639113522  C 37.067997544284 2.79622639113522  34.9128622821865 2.29449780073274  32.8142529252096 1.29104061992778  C 32.7008605974677 1.23514423927587  30.0918155069019 0.00877095359562008  27.3128521834735 0.00877095359562008  L 27.0860675279898 0.00877095359562008  C 23.8531943760931 0.0646673342475308  22.038576614722 1.17958256749014  20.847446397181 2.1830397482951  C 19.65631617964 2.1830397482951  18.6354447124622 2.51741390560803  17.7279655730263 2.74066471934949  C 16.9338787613323 2.96358082422477  16.1966583722596 3.13093525731433  15.5159638883075 3.13093525731433  L 14.6660322064943 3.13093525731433  C 13.8719453948003 3.13093525731433  9.90185185383101 2.18337445716128  6.78271154717701 0.956666462614851  C 6.44253456395132 1.17958256749014  6.15888348584621 1.4028333812316  5.81870650262052 1.62574948610689  C 9.10810555963773 2.96358082422477  13.1350655232284 3.96703800502974  14.38272164589 4.07849605746738  C 14.7228986291157 4.07849605746738  15.1199420349627 4.13439243811929  15.5169854408097 4.13439243811929  C 16.3675981576243 4.13439243811929  17.1616849693183 3.911476333244  18.0122976861329 3.68822551950254  C 18.5227334197218 3.5767674670649  19.0331691533107 3.40941303397535  19.5436048868996 3.2979549815377  L 19.0896950584313 3.74412190015445  L 16.8211674685919 6.19686847151494  C 16.6509087182286 6.3642229046045  16.2538653123816 6.86595149500698  16.4809904853662 7.42324175719519  C 16.5943828131081 7.64615786207048  16.8211674685919 7.86940867581194  17.104818546697 8.09232478068722  C 17.6721207029072 8.42669893800015  18.6361257474637 8.70551142352735  19.5436048868996 8.70551142352735  C 19.8837818701253 8.70551142352735  20.2242993708517 8.64961504287544  20.5076099314561 8.5940533710897  C 21.4716149760126 8.37113726621442  22.4924864431904 7.59059619028474  23.5136984278689 6.75449344256934  C 24.3643111446835 6.0854104190773  25.5554413622245 5.24930767136189  26.4629205016604 4.9704951858347  C 26.7465715797655 4.91459880518278  27.0302226578706 4.85903713339706  27.313533218475 4.85903713339706  L 27.5403178739588 4.85903713339706  C 28.1641459352896 4.91493351404897  28.7314480914998 5.13784961892425  29.8088454637982 5.91839069485393  C 31.6803296477906 7.31211841362373  40.0175601355763 14.4477767316961  40.0744265581976 14.503673112348  C 40.0744265581976 14.503673112348  40.5848622917865 14.9498400309648  40.5848622917865 15.7300463980283  C 40.5848622917865 16.1203169359931  40.3012112136814 16.5105874739579  39.9041678078344 16.7893999594851  C 39.5639908246087 17.0123160643604  39.1669474187617 17.1237741167981  38.8264299180352 17.1237741167981  C 38.259127761825 17.1237741167981  37.8624248734787 16.8449616312709  37.8624248734787 16.8449616312709  C 37.8624248734787 16.8449616312709  34.9700692223085 14.2804222986065  33.9491977551307 13.3887578791054  C 33.7789390047675 13.2214034460159  33.609020771905 13.1099453935782  33.4387620215418 13.1099453935782  C 33.3253696937999 13.1099453935782  33.2685032711786 13.1658417742301  33.211977366058 13.2214034460159  C 33.0417186156948 13.4443195508911  33.211977366058 13.7231320364183  33.4387620215418 13.8904864695079  L 36.7850275011803 17.17967049745  C 36.7850275011803 17.17967049745  37.1820709070274 17.5699410354148  37.2389373296487 18.0716696258173  C 37.2389373296487 18.6292945968717  37.0121526741649 19.0751268066223  36.4448505179547 19.4095009639352  C 36.0478071121076 19.6883134494624  35.6507637062606 19.7997715019  35.2537203004136 19.7997715019  C 34.7432845668247 19.7997715019  34.403107583599 19.5768553970247  34.2897152558571 19.5209590163728  L 33.7792795222682 19.0747920977561  C 32.9286668054537 18.2386893500407  32.0211876660177 17.3466902216733  31.3404931820656 16.8449616312709  C 31.1702344317024 16.7335035788332  31.0003161988399 16.5661491457437  30.8300574484767 16.5661491457437  C 30.7731910258554 16.5661491457437  30.6597986981135 16.5661491457437  30.6032727929929 16.6776071981813  C 30.5464063703716 16.7335035788332  30.489880465251 16.9005233030566  30.6601392156142 17.1793357885838  C 30.7170056382356 17.2907938410214  30.8303979659775 17.3466902216733  30.8303979659775 17.3466902216733  L 33.2691843061801 20.0226876067753  C 33.2691843061801 20.0226876067753  33.779620039769 20.6358742496154  33.3260507288014 21.1376028400179  L 33.2126584010595 21.2490608924555  L 32.9858737455757 21.4719769973308  C 32.5888303397287 21.8063511546438  32.0218687010192 21.8622475352957  31.7947435280347 21.8622475352957  L 31.454566544809 21.8622475352957  C 31.2277818893252 21.8063511546438  31.057523138962 21.750789482858  30.9441308112201 21.6393314304204  C 30.8307384834782 21.4719769973308  29.5830823608166 20.3015000923025  28.5622108936388 19.4650626357209  C 28.4488185658969 19.3536045832833  28.2785598155337 19.2421465308456  28.1083010651705 19.2421465308456  C 28.0514346425491 19.2421465308456  27.9380423148072 19.2980429114975  27.8815164096867 19.3536045832833  C 27.7112576593235 19.5765206881585  27.9949087374286 19.9112295543377  28.1083010651705 20.0226876067753  L 30.2065699046466 22.2525180732605  C 30.2065699046466 22.2525180732605  30.2065699046466 22.3084144539124  30.1497034820253 22.4198725063501  C 30.092837059404 22.5313305587877  29.8095264987997 22.754246663663  29.0719655922262 22.8660394249668  L 28.7883145141211 22.8660394249668  C 27.9942277024271 22.8660394249668  27.2001408907331 22.475768887002  26.7465715797655 22.2528527821267  C 26.9168303301287 21.8625822441619  27.0302226578706 21.4167500344113  27.0302226578706 20.9705831157945  C 27.0302226578706 19.2980429114975  25.6691742074671 17.9602115733796  23.9676082563372 17.9602115733796  L 23.8542159285953 17.9602115733796  C 23.9110823512166 17.17967049745  23.797349505974 15.7303811068944  22.2660423052073 15.1171944640543  C 21.812132476739 14.9498400309648  21.4154295883927 14.8383819785271  20.9615197599244 14.8383819785271  C 20.6213427766987 14.8383819785271  20.3376916985936 14.894278359179  19.9975147153679 15.0057364116167  C 19.6573377321422 14.3925497687765  19.1469019985533 13.9463828501598  18.4662075146012 13.7234667452845  C 18.0691641087542 13.6120086928469  17.7289871255285 13.556112312195  17.3319437196815 13.556112312195  C 16.7081156583507 13.556112312195  16.1408135021405 13.7234667452845  15.6303777685516 14.1137372832493  C 15.1315196299874 13.5095877797961  14.3803380233849 13.1611558501036  13.5886348341959 13.1661764830963  C 12.9079403502438 13.1661764830963  12.2275863837924 13.4449889686235  11.7736765553241 13.8908211783741  C 11.1498484939933 13.3890925879716  8.59766982604882 11.8283451449784  1.73522063390929 10.267262993119  C 1.3950436506836 10.2113666124671  0.657482744110174 9.98845050759185  0.203913433142584 9.8210960745023  C 0.147047010521272 10.1554702318152  0.0905211054006863 10.5457407697801  0.0336546827793743 10.9360113077449  C 0.0336546827793743 10.9360113077449  1.28131080544097 11.2148237932721  1.56496188354608 11.2703854650578  C 8.54080340342751 12.7755712362653  10.8661974158882 14.3922150599104  11.2632408217352 14.6710275454376  C 11.1498484939933 15.0054017027505  11.092982071372 15.3401105689296  11.092982071372 15.6744847262425  C 11.092982071372 17.1237741167981  12.284112288913 18.2390240589068  13.7020271619378 18.2390240589068  C 13.8722859123011 18.2390240589068  14.0422041451635 18.2390240589068  14.2124628955267 18.1831276782549  C 14.4392475510105 19.2424812397118  15.1199420349627 20.0226876067753  16.197339407261 20.4129581447401  C 16.5375163904867 20.5244161971778  16.8211674685918 20.5803125778297  17.104818546697 20.5803125778297  C 17.2750772970602 20.5803125778297  17.501861952544 20.5803125778297  17.7286466080278 20.5244161971778  C 17.898905358391 21.0261447875803  18.3524746693586 21.6393314304204  19.3733461365364 22.0296019683852  C 19.7135231197621 22.1969564014748  20.0540406204885 22.2525180732605  20.3942176037142 22.2525180732605  C 20.6778686818193 22.2525180732605  20.9615197599244 22.1966216926086  21.1883044154082 22.0851636401709  C 21.6422142438765 23.2000788734136  22.7764780387962 23.9806199493432  24.0241341614578 23.9806199493432  C 24.8747468782724 23.9806199493432  25.6688336899664 23.6462457920303  26.2361358461766 23.0330591491902  C 26.7465715797655 23.3118716347174  27.7674430469433 23.8136002251199  28.8451809367424 23.8136002251199  L 29.2422243425894 23.8136002251199  C 30.3199622323886 23.7021421726822  30.7735315433562 23.2559752540655  31.0003161988399 22.9774974774045  C 31.0571826214613 22.9216010967525  31.0571826214613 22.8660394249668  31.1137085265818 22.8101430443149  C 31.3404931820656 22.8660394249668  31.6241442601707 22.9216010967525  31.9643212433964 22.9216010967525  C 32.5316233996067 22.9216010967525  33.0985850383161 22.754246663663  33.6658871945264 22.3084144539124  C 34.2331893507366 21.9181439159476  34.6298922390828 21.3608536537594  34.6298922390828 20.8591250633569  C 34.8001509894461 20.9150214440088  35.0269356449299 20.9150214440088  35.1971943952931 20.9150214440088  C 35.7644965515033 20.9150214440088  36.3883246128341 20.7476670109192  36.9552862515436 20.3573964729544  C 38.0330241413427 19.6883134494624  38.2029423742052 18.7407526493093  38.2029423742052 18.1831276782549  C 38.3732011245684 18.2390240589068  38.5999857800522 18.2390240589068  38.7702445304154 18.2390240589068  C 39.3375466866256 18.2390240589068  39.9045083253351 18.0716696258173  40.414944058924 17.7372954685044  C 41.0956385428761 17.2911285498876  41.4926819487231 16.6779419070475  41.5492078538437 15.9532972117697  C 41.606074276465 15.4515686213672  41.4358155261018 14.9498400309648  41.209030870618 14.5040078212142  C 43.0239891494898 13.7234667452845  47.107475018201 12.274177354729  51.9850476986063 11.1592621214864  C 51.9850476986063 10.7689915835215  51.928181275985 10.4346174262086  51.8147889482431 10.0443468882438  C 45.9725301882799 11.2700507561917  41.6057337589643 13.109610684712  40.5279958691652 13.6116739839807  Z M 24.137185971699 22.9216010967525  C 23.0029221767793 22.9216010967525  22.0954430373434 22.0296019683852  22.0389171322228 20.9146867351426  C 22.0389171322228 20.803228682705  22.0389171322228 20.5803125778297  21.812132476739 20.5803125778297  C 21.6987401489971 20.5803125778297  21.6418737263758 20.6362089584816  21.5284813986339 20.6917706302673  C 21.3016967431501 20.9146867351426  20.9611792424237 21.1379375488841  20.5076099314561 21.1379375488841  C 20.2808252759723 21.1379375488841  20.0537001029877 21.0820411682322  19.826915447504 20.9705831157945  C 18.6357852299629 20.4688545253921  18.5792593248424 19.6883134494624  18.6357852299629 19.3539392921495  C 18.6357852299629 19.2424812397118  18.6357852299629 19.1865848590599  18.5789188073416 19.1310231872742  L 18.5220523847203 19.0751268066223  L 18.465185962099 19.0751268066223  C 18.4083195394777 19.0751268066223  18.3517936343571 19.0751268066223  18.2384013066152 19.1865848590599  C 17.8982243233895 19.4095009639352  17.5577068226631 19.5209590163728  17.2175298394374 19.5209590163728  C 17.0472710890742 19.5209590163728  16.8204864335904 19.4650626357209  16.6502276832272 19.4095009639352  C 15.0620540598392 18.7963143210951  15.1757869050818 17.3470249305395  15.2891792328237 16.9008580119228  C 15.2891792328237 16.7893999594851  15.2891792328237 16.7335035788332  15.2323128102024 16.6779419070475  L 15.1189204824605 16.5664838546098  L 15.0055281547186 16.6779419070475  C 14.6653511714929 16.9567543925747  14.2683077656459 17.1241088256642  13.8712643597989 17.1241088256642  C 12.963785220363 17.1241088256642  12.2265648312903 16.3994641303865  12.2265648312903 15.5074650020192  C 12.2265648312903 14.6154658736518  12.963785220363 13.8908211783741  13.8712643597989 13.8908211783741  C 14.6653511714929 13.8908211783741  15.4025715605656 14.5040078212142  15.5159638883075 15.2845488971439  L 15.5728303109288 15.7307158157606  L 15.7996149664126 15.3404452777958  C 15.7996149664126 15.2845488971439  16.4803094503647 14.2810917163389  17.7279655730263 14.3369880969908  C 17.9547502285101 14.3369880969908  18.1818754014946 14.3928844776427  18.465185962099 14.4484461494285  C 19.4291910066555 14.7272586349557  19.5994497570187 15.619257763323  19.5994497570187 15.9536319206359  C 19.5994497570187 16.1765480255112  19.7697085073819 16.1765480255112  19.7697085073819 16.1765480255112  C 19.8265749300032 16.1765480255112  19.9399672577451 16.1206516448593  19.9399672577451 16.0650899730736  C 20.1102260081083 15.897735539984  20.5072694139553 15.5633613826711  21.1310974752861 15.5633613826711  C 21.4147485533913 15.5633613826711  21.6983996314964 15.619257763323  22.0385766147221 15.7862774875464  C 23.5698838154888 16.4553605110384  22.8891893315366 18.3508168202107  22.8891893315366 18.4063784919964  C 22.7757970037948 18.7407526493093  22.7189305811734 18.8525454106132  22.8891893315366 18.9640034630508  L 23.0025816592785 18.9640034630508  C 23.0594480818999 18.9640034630508  23.1728404096418 18.9640034630508  23.2862327373837 18.9081070823989  C 23.5130173928675 18.852210701747  23.7966684709726 18.7407526493093  24.0803195490777 18.7407526493093  C 25.2145833439974 18.7407526493093  26.1785883885539 19.6883134494624  26.1785883885539 20.803228682705  C 26.2357953286759 22.029267259519  25.2717902841194 22.9212663878864  24.137185971699 22.9216010967525  Z " fill-rule="nonzero" fill="#2699fb" stroke="none" transform="matrix(1 0 0 1 1053 3225 )" />
  </g>
</svg>