<?xml version="1.0" encoding="utf-8"?>
<svg version="1.1" xmlns:xlink="http://www.w3.org/1999/xlink" width="14px" height="14px" viewBox="439 3075  14 14" xmlns="http://www.w3.org/2000/svg">
  <path d="M 439.5 3077  A 1.5 1.5 0 0 1 441 3075.5 L 451 3075.5  A 1.5 1.5 0 0 1 452.5 3077 L 452.5 3087  A 1.5 1.5 0 0 1 451 3088.5 L 441 3088.5  A 1.5 1.5 0 0 1 439.5 3087 L 439.5 3077  Z " fill-rule="nonzero" fill="#ffffff" stroke="none" />
  <path d="M 439.5 3077  A 1.5 1.5 0 0 1 441 3075.5 L 451 3075.5  A 1.5 1.5 0 0 1 452.5 3077 L 452.5 3087  A 1.5 1.5 0 0 1 451 3088.5 L 441 3088.5  A 1.5 1.5 0 0 1 439.5 3087 L 439.5 3077  Z " stroke-width="1" stroke="#2699fb" fill="none" />
  <path d="M 442.5 3082.5  L 445.5 3085.5  " stroke-width="3" stroke="#2699fb" fill="none" />
  <path d="M 445.5 3085.5  L 450.5 3078.5  " stroke-width="3" stroke="#2699fb" fill="none" />
</svg>